#N canvas 0 295 1366 685 12;
#X obj 110 533 outlet;
#X obj 110 220 moses;
#X floatatom 116 54 7 0 0 0 adr - - 0;
#X obj 196 196 nbx 5 17 -1e+37 1e+37 0 1 empty empty empty 0 -10 0 12 #fcfcfc #000000 #000000 8192 256;
#X obj 246 242 bng 19 250 50 0 empty empty empty 0 -10 0 12 #fcfcfc #000000 #000000;
#X floatatom 109 148 7 0 0 0 adr - - 0;
#X obj 111 113 & 65535;
#X obj 110 289 expr arr_RAM[$f1 & 2047], f 14;
#X obj 130 258 bng 19 250 50 0 empty empty empty 0 -10 0 12 #fcfcfc #000000 #000000;
#X floatatom 127 353 5 0 0 0 - - - 0;
#X obj 275 276 moses;
#X obj 307 243 nbx 5 17 -1e+37 1e+37 0 1 empty empty empty 0 -10 0 12 #fcfcfc #000000 #000000 16368 256;
#X floatatom 189 416 5 0 0 0 - - - 0;
#X obj 336 315 moses;
#X obj 384 277 nbx 5 17 -1e+37 1e+37 0 1 empty empty empty 0 -10 0 12 #fcfcfc #000000 #000000 16384 256;
#X obj 266 398 expr arr_callarea[$f1 & 15], f 9;
#X obj 387 358 moses;
#X obj 440 313 nbx 5 17 -1e+37 1e+37 0 1 empty empty empty 0 -10 0 12 #fcfcfc #000000 #000000 16416 256;
#X obj 298 689 nbx 5 17 -1e+37 1e+37 0 0 empty empty empty 0 -10 0 12 #fcfcfc #000000 #000000 0 256;
#X obj 662 396 s R_M_read_val;
#X obj 299 658 r S_M_Read;
#X floatatom 665 356 12 0 0 0 - - - 0;
#X obj 340 462 expr if( $f1 == 16404 \, 0 \, if($f1 == 16406 || $f1 == 16407 \, 0 \, $f2)), f 79;
#X obj 456 374 bng 19 250 50 0 empty empty empty 0 -10 0 12 #fcfcfc #000000 #000000;
#X obj 119 7 inlet;
#X text 860 444 APU READ HERE;
#X floatatom 393 541 5 0 0 0 - - - 0;
#X obj 400 396 bng 19 250 50 0 empty empty empty 0 -10 0 12 #fcfcfc #000000 #000000;
#X obj 492 415 NSFmapper_read;
#X obj 240 337 bng 19 250 50 0 empty empty empty 0 -10 0 12 #fcfcfc #000000 #000000;
#X connect 1 0 7 0;
#X connect 1 0 8 0;
#X connect 1 1 4 0;
#X connect 1 1 10 0;
#X connect 2 0 6 0;
#X connect 3 0 1 1;
#X connect 5 0 1 0;
#X connect 6 0 5 0;
#X connect 7 0 9 0;
#X connect 7 0 0 0;
#X connect 10 0 29 0;
#X connect 10 1 13 0;
#X connect 11 0 10 1;
#X connect 12 0 0 0;
#X connect 13 0 15 0;
#X connect 13 1 16 0;
#X connect 14 0 13 1;
#X connect 15 0 0 0;
#X connect 16 0 22 0;
#X connect 16 0 27 0;
#X connect 16 1 23 0;
#X connect 16 1 28 0;
#X connect 17 0 16 1;
#X connect 20 0 18 0;
#X connect 21 0 19 0;
#X connect 22 0 26 0;
#X connect 22 0 0 0;
#X connect 24 0 2 0;
#X connect 28 0 0 0;
#X connect 29 0 12 0;
