#N canvas 26 26 1366 685 12;
#X obj 110 220 moses;
#X floatatom 116 54 7 0 0 0 adr - - 0;
#X obj 196 196 nbx 5 17 -1e+37 1e+37 0 1 empty empty empty 0 -10 0 12 #fcfcfc #000000 #000000 8192 256;
#X obj 246 242 bng 19 250 50 0 empty empty empty 0 -10 0 12 #fcfcfc #000000 #000000;
#X floatatom 109 148 7 0 0 0 adr - - 0;
#X obj 111 113 & 65535;
#X obj 130 258 bng 19 250 50 0 empty empty empty 0 -10 0 12 #fcfcfc #000000 #000000;
#X floatatom 127 353 5 0 0 0 - - - 0;
#X obj 259 291 moses;
#X obj 307 253 nbx 5 17 -1e+37 1e+37 0 1 empty empty empty 0 -10 0 12 #fcfcfc #000000 #000000 16384 256;
#X obj 333 323 moses;
#X obj 386 278 nbx 5 17 -1e+37 1e+37 0 1 empty empty empty 0 -10 0 12 #fcfcfc #000000 #000000 16416 256;
#X obj 263 438 expr if( $f1 == 16404 \, 0 \, if($f1 == 16406 || $f1 == 16407 \, 0 \, $f2)), f 79;
#X obj 388 365 bng 19 250 50 0 empty empty empty 0 -10 0 12 #fcfcfc #000000 #000000;
#X obj 119 7 inlet;
#X floatatom 316 517 5 0 0 0 - - - 0;
#X obj 343 370 bng 19 250 50 0 empty empty empty 0 -10 0 12 #fcfcfc #000000 #000000;
#X obj 238 11 inlet;
#X obj 110 289 expr arr_RAM[$f1 & 2047] = $f2, f 14;
#X text 783 420 APU WRITE HERE;
#X obj 465 400 s R_M_Write_val;
#X obj 452 361 pack f f;
#X floatatom 245 349 5 0 0 0 - - - 0;
#X connect 0 0 6 0;
#X connect 0 0 18 0;
#X connect 0 1 3 0;
#X connect 0 1 8 0;
#X connect 1 0 5 0;
#X connect 2 0 0 1;
#X connect 4 0 0 0;
#X connect 5 0 4 0;
#X connect 8 0 22 0;
#X connect 8 1 10 0;
#X connect 9 0 8 1;
#X connect 10 0 12 0;
#X connect 10 0 16 0;
#X connect 10 1 21 0;
#X connect 10 1 13 0;
#X connect 11 0 10 1;
#X connect 12 0 15 0;
#X connect 14 0 1 0;
#X connect 17 0 18 1;
#X connect 17 0 21 1;
#X connect 18 0 7 0;
#X connect 21 0 20 0;
