#N canvas 156 156 450 300 12;
#X obj 100 57 inlet;
#X obj 95 609 outlet;
#X obj 1093 112 nbx 5 17 -1e+37 1e+37 0 1 empty empty empty 0 -10 0 12 #fcfcfc #000000 #000000 1 256;
#X obj 1010 132 array get arr_romdata;
#X obj 1029 293 nbx 5 17 -1e+37 1e+37 0 1 empty empty empty 0 -10 0 12 #fcfcfc #000000 #000000 1 256;
#X obj 1036 316 array get arr_prgram;
#X obj 974 200 array get arr_banks;
#X obj 1052 167 nbx 5 17 -1e+37 1e+37 0 1 empty empty empty 0 -10 0 12 #fcfcfc #000000 #000000 1 256;
#X obj 662 64 expr if($f1 < 24576 \, 0 \, 0);
#X obj 101 179 moses;
#X floatatom 101 130 7 0 0 0 - - - 0;
#X floatatom 95 267 5 0 0 0 - - - 0;
#X obj 98 225 bng 19 250 50 0 empty empty empty 0 -10 0 12 #fcfcfc #000000 #000000;
#X obj 151 305 moses;
#X obj 133 386 expr arr_prgram[$f1 & 8191], f 13;
#X floatatom 179 218 5 0 0 0 - - - 0;
#X floatatom 137 348 9 0 0 0 - - - 0;
#X floatatom 129 462 5 0 0 0 - - - 0;
#X obj 185 128 nbx 5 17 -1e+37 1e+37 0 1 empty empty empty 0 -10 0 12 #fcfcfc #000000 #000000 24576 256;
#X obj 175 254 nbx 5 17 -1e+37 1e+37 0 1 empty empty empty 0 -10 0 12 #fcfcfc #000000 #000000 32768 256;
#X floatatom 276 468 9 0 0 0 - - - 0;
#X floatatom 262 597 5 0 0 0 - - - 0;
#X obj 348 610 bng 19 250 50 0 empty empty empty 0 -10 0 12 #fcfcfc #000000 #000000;
#X obj 277 399 moses;
#X obj 278 545 expr arr_romdata[$f2 & 32767];
#X obj 305 445 bng 19 250 50 0 empty empty empty 0 -10 0 12 #fcfcfc #000000 #000000;
#X obj 428 447 bng 19 250 50 0 empty empty empty 0 -10 0 12 #fcfcfc #000000 #000000;
#X obj 237 201 bng 19 250 50 0 empty empty empty 0 -10 0 12 #fcfcfc #000000 #000000;
#X obj 273 351 expr banked;
#X floatatom 439 346 6 0 0 0 - - - 0;
#X obj 380 381 nbx 5 17 -1e+37 1e+37 0 1 empty empty empty 0 -10 0 12 #fcfcfc #000000 #000000 1 256;
#X connect 0 0 10 0;
#X connect 2 0 3 1;
#X connect 4 0 5 1;
#X connect 7 0 6 1;
#X connect 9 0 12 0;
#X connect 9 1 15 0;
#X connect 9 1 13 0;
#X connect 9 1 27 0;
#X connect 10 0 9 0;
#X connect 11 0 1 0;
#X connect 12 0 11 0;
#X connect 13 0 16 0;
#X connect 13 1 24 1;
#X connect 13 1 28 0;
#X connect 13 1 29 0;
#X connect 14 0 17 0;
#X connect 16 0 14 0;
#X connect 17 0 1 0;
#X connect 18 0 9 1;
#X connect 19 0 13 1;
#X connect 20 0 24 0;
#X connect 23 0 25 0;
#X connect 23 0 20 0;
#X connect 23 1 26 0;
#X connect 23 1 29 0;
#X connect 24 0 1 0;
#X connect 24 0 21 0;
#X connect 24 0 22 0;
#X connect 28 0 23 0;
#X connect 30 0 23 1;
