#N canvas 26 26 1366 685 12;
#X obj 91 74 GEMglLoadIdentity;
#X obj 87 266 GEMglLoadIdentity;
#X floatatom 183 104 5 0 0 0 - - - 0;
#X floatatom 251 104 5 0 0 0 - - - 0;
#X obj 90 147 GEMglViewport 0 0 512 480;
#X obj 88 197 GEMglOrtho 0 256 240 0 0 1;
#X obj 90 309 outlet;
#X obj 103 20 inlet;
#X obj 186 19 inlet;
#X obj 264 20 inlet;
#X obj 91 52 GEMglMatrixMode GL_PROJECTION;
#X obj 88 244 GEMglMatrixMode GL_MODELVIEW;
#X connect 0 0 4 0;
#X connect 1 0 6 0;
#X connect 2 0 4 3;
#X connect 3 0 4 4;
#X connect 4 0 5 0;
#X connect 5 0 11 0;
#X connect 7 0 10 0;
#X connect 8 0 2 0;
#X connect 9 0 3 0;
#X connect 10 0 0 0;
#X connect 11 0 1 0;
