#N canvas 0 105 1362 685 12;
#N canvas 0 101 1362 685 disasm 0;
#X obj 223 1973 outlet;
#X obj 632 25 inlet;
#X obj 697 25 inlet;
#X obj 760 23 inlet;
#X obj 671 98 expr addr1 = $f1;
#X floatatom 729 66 5 0 0 0 - - - 0;
#X obj 813 98 expr nstop = $f1;
#X floatatom 798 64 5 0 0 0 - - - 0;
#X obj 601 63 bng 19 250 50 0 empty empty empty 0 -10 0 12 #fcfcfc #000000 #000000;
#X obj 692 67 bng 19 250 50 0 empty empty empty 0 -10 0 12 #fcfcfc #000000 #000000;
#X obj 718 387 Bus_read;
#X obj 890 500 makefilename not-set-yet;
#X obj 698 320 expr addr1 = addr1 + 1 \; addr1;
#X obj 715 432 expr opcode = $f1;
#X msg 894 414 set \$1;
#N canvas 0 130 1362 685 opnames 0;
#X obj 147 108 inlet;
#X obj 245 617 outlet;
#X obj 222 499 list store;
#X msg 209 461 get \$1;
#X floatatom 208 414 5 0 255 0 - - - 0;
#X msg 255 141 BRK ORA KIL SLO NOP ORA ASL SLO PHP ORA ASL ANC NOP ORA ASL SLO BPL ORA KIL SLO NOP ORA ASL SLO CLC ORA NOP SLO NOP ORA ASL SLO JSR AND KIL RLA BIT AND ROL RLA PLP AND ROL ANC BIT AND ROL RLA BMI AND KIL RLA NOP AND ROL RLA SEC AND NOP RLA NOP AND ROL RLA RTI EOR KIL SRE NOP EOR LSR SRE PHA EOR LSR ALR JMP EOR LSR SRE BVC EOR KIL SRE NOP EOR LSR SRE CLI EOR NOP SRE NOP EOR LSR SRE RTS ADC KIL RRA NOP ADC ROR RRA PLA ADC ROR ARR JMP ADC ROR RRA BVS ADC KIL RRA NOP ADC ROR RRA SEI ADC NOP RRA NOP ADC ROR RRA NOP STA NOP SAX STY STA STX SAX DEY NOP TXA UNI STY STA STX SAX BCC STA KIL UNI STY STA STX SAX TYA STA TXS UNI UNI STA UNI UNI LDY LDA LDX LAX LDY LDA LDX LAX TAY LDA TAX UNI LDY LDA LDX LAX BCS LDA KIL LAX LDY LDA LDX LAX CLV LDA TSX UNI LDY LDA LDX LAX CPY CMP NOP DCP CPY CMP DEC DCP INY CMP DEX AXS CPY CMP DEC DCP BNE CMP KIL DCP NOP CMP DEC DCP CLD CMP NOP DCP NOP CMP DEC DCP CPX SBC NOP ISC CPX SBC INC ISC INX SBC NOP SBC CPX SBC INC ISC BEQ SBC KIL ISC NOP SBC INC ISC SED SBC NOP ISC NOP SBC INC ISC, f 70;
#X symbolatom 241 549 44 0 0 0 - - - 0;
#X obj 858 499 expr oplengths[$f1];
#N canvas 0 50 450 250 (subpatch) 0;
#X array opLengths 16 float 3;
#A 0 1 2 2 2 2 2 2 3 3 3 0 3 2 2 3 3;
#X coords 0 1 16 -1 200 140 1;
#X restore 1008 861 graph;
#X obj 850 116 inlet;
#X obj 843 602 outlet;
#X obj 267 79 loadbang;
#X connect 0 0 3 0;
#X connect 2 0 6 0;
#X connect 3 0 2 0;
#X connect 4 0 3 0;
#X connect 5 0 2 1;
#X connect 6 0 1 0;
#X connect 7 0 10 0;
#X connect 9 0 7 0;
#X connect 11 0 5 0;
#X restore 713 473 pd opnames;
#X symbolatom 730 525 10 0 0 0 - - - 0;
#X msg 881 543 set \$1;
#X obj 690 233 t b b f;
#N canvas 0 130 1362 685 opnames 0;
#X obj 147 108 inlet;
#X obj 245 617 outlet;
#X obj 222 499 list store;
#X msg 209 461 get \$1;
#X floatatom 208 414 5 0 255 0 - - - 0;
#X msg 255 141 BRK ORA KIL SLO NOP ORA ASL SLO PHP ORA ASL ANC NOP ORA ASL SLO BPL ORA KIL SLO NOP ORA ASL SLO CLC ORA NOP SLO NOP ORA ASL SLO JSR AND KIL RLA BIT AND ROL RLA PLP AND ROL ANC BIT AND ROL RLA BMI AND KIL RLA NOP AND ROL RLA SEC AND NOP RLA NOP AND ROL RLA RTI EOR KIL SRE NOP EOR LSR SRE PHA EOR LSR ALR JMP EOR LSR SRE BVC EOR KIL SRE NOP EOR LSR SRE CLI EOR NOP SRE NOP EOR LSR SRE RTS ADC KIL RRA NOP ADC ROR RRA PLA ADC ROR ARR JMP ADC ROR RRA BVS ADC KIL RRA NOP ADC ROR RRA SEI ADC NOP RRA NOP ADC ROR RRA NOP STA NOP SAX STY STA STX SAX DEY NOP TXA UNI STY STA STX SAX BCC STA KIL UNI STY STA STX SAX TYA STA TXS UNI UNI STA UNI UNI LDY LDA LDX LAX LDY LDA LDX LAX TAY LDA TAX UNI LDY LDA LDX LAX BCS LDA KIL LAX LDY LDA LDX LAX CLV LDA TSX UNI LDY LDA LDX LAX CPY CMP NOP DCP CPY CMP DEC DCP INY CMP DEX AXS CPY CMP DEC DCP BNE CMP KIL DCP NOP CMP DEC DCP CLD CMP NOP DCP NOP CMP DEC DCP CPX SBC NOP ISC CPX SBC INC ISC INX SBC NOP SBC CPX SBC INC ISC BEQ SBC KIL ISC NOP SBC INC ISC SED SBC NOP ISC NOP SBC INC ISC, f 70;
#X symbolatom 241 549 44 0 0 0 - - - 0;
#X obj 858 499 expr oplengths[$f1];
#N canvas 0 50 450 250 (subpatch) 0;
#X array opLengths 16 float 3;
#A 0 1 2 2 2 2 2 2 3 3 3 0 3 2 2 3 3;
#X coords 0 1 16 -1 200 140 1;
#X restore 1008 861 graph;
#X obj 850 116 inlet;
#X obj 843 602 outlet;
#X obj 267 79 loadbang;
#X connect 0 0 3 0;
#X connect 2 0 6 0;
#X connect 3 0 2 0;
#X connect 4 0 3 0;
#X connect 5 0 2 1;
#X connect 6 0 1 0;
#X connect 7 0 10 0;
#X connect 9 0 7 0;
#X connect 11 0 5 0;
#X restore 94 624 pd opnames;
#X obj 96 583 expr opcode;
#X obj 493 417 expr arr_addressingmodes[opcode];
#X obj 225 1898 r disasm_line;
#X obj 281 138 bng 19 250 50 0 empty empty empty 0 -10 0 12 #fcfcfc #000000 #000000;
#X obj 51 21 v adr_mode;
#X obj 495 494 expr adr_mode = $f1;
#X obj 276 176 expr adr_mode == IMP;
#X obj 276 209 sel 1 0, f 8;
#X obj 281 107 t b b b, f 48;
#X floatatom 491 550 5 0 0 0 - - - 0;
#X obj 276 275 expr adr_mode == IMM;
#X obj 276 308 sel 1 0, f 8;
#X obj 276 407 sel 1 0, f 8;
#X obj 276 374 expr adr_mode == ABS;
#X obj 276 506 sel 1 0, f 8;
#X obj 276 473 expr adr_mode == REL;
#X obj 275 609 sel 1 0, f 8;
#X obj 275 576 expr adr_mode == ZP;
#X listbox 375 1944 40 0 0 0 - - - 0;
#X obj 275 703 sel 1 0, f 8;
#X obj 275 675 expr adr_mode == ZPX;
#X obj 275 794 sel 1 0, f 8;
#X obj 275 761 expr adr_mode == ZPY;
#X obj 274 881 sel 1 0, f 8;
#X obj 274 855 expr adr_mode == ABX;
#X obj 268 965 sel 1 0, f 8;
#X obj 270 932 expr adr_mode == ABY;
#X obj 264 1029 expr adr_mode == IZX;
#X obj 262 1062 sel 1 0, f 8;
#X obj 262 1158 sel 1 0, f 8;
#X obj 264 1125 expr adr_mode == IZY;
#X obj 262 1229 expr adr_mode == IND;
#X obj 797 573 s str_cont;
#X obj 893 311 makefilename $%X:\\\ %%s\\\ %%%%s;
#X obj 621 157 expr addr1;
#N canvas 0 193 1362 685 -IMM- 0;
#X obj 153 380 s disasm_line;
#X obj 136 134 expr addr1 = addr1 + 1 \; val1 = $f1;
#X obj 153 332 makefilename not-set-yet;
#X obj 51 202 r str_cont;
#X obj 153 91 bus_read;
#X obj 156 58 expr addr1;
#X floatatom 301 180 5 0 0 0 - - - 0;
#X floatatom 251 110 5 0 0 0 - - - 0;
#X obj 176 201 makefilename #$%X\\\ -IMM-;
#X obj 130 18 inlet;
#X connect 1 1 6 0;
#X connect 1 1 8 0;
#X connect 2 0 0 0;
#X connect 3 0 2 0;
#X connect 4 0 1 0;
#X connect 4 0 7 0;
#X connect 5 0 4 0;
#X connect 8 0 2 0;
#X connect 9 0 5 0;
#X restore 276 341 pd -IMM-;
#N canvas 540 189 450 300 IMP 0;
#X msg 103 85 symbol -IMP-;
#X listbox 103 142 20 0 0 0 - - - 0;
#X obj 76 265 s disasm_line;
#X obj 64 196 makefilename not-set-yet;
#X obj 1 151 r str_cont;
#X obj 52 11 inlet;
#X connect 0 0 1 0;
#X connect 1 0 3 0;
#X connect 3 0 2 0;
#X connect 4 0 3 0;
#X connect 5 0 0 0;
#X restore 276 242 pd IMP;
#X obj 145 8 v lo;
#X obj 146 33 v hi;
#N canvas 0 52 1362 685 -ABS- 0;
#X obj 242 197 bus_read;
#X obj 245 164 expr addr1;
#X obj 225 240 expr addr1 = addr1 + 1 \; lo = $f1;
#X obj 68 198 bus_read;
#X obj 71 165 expr addr1;
#X obj 51 241 expr addr1 = addr1 + 1 \; hi = $f1;
#X obj 168 117 t b b;
#X obj 62 322 << 8;
#X obj 203 377 |;
#X obj 166 649 s disasm_line;
#X obj 166 601 makefilename not-set-yet;
#X obj 51 490 r str_cont;
#X obj 189 470 makefilename $%X\\\ -ABS-;
#X floatatom 223 421 15 0 0 0 - - - 0;
#X obj 163 59 inlet;
#X connect 0 0 2 0;
#X connect 1 0 0 0;
#X connect 2 1 8 1;
#X connect 3 0 5 0;
#X connect 4 0 3 0;
#X connect 5 1 7 0;
#X connect 6 0 4 0;
#X connect 6 1 1 0;
#X connect 7 0 8 0;
#X connect 8 0 12 0;
#X connect 8 0 13 0;
#X connect 10 0 9 0;
#X connect 11 0 10 0;
#X connect 12 0 10 0;
#X connect 14 0 6 0;
#X restore 276 440 pd -ABS-;
#X obj 108 930 v val1;
#X msg 706 1445 \; cpu_reset 1 \;;
#X msg 706 1397 \; cpu_cycle 1;
#N canvas 173 130 450 300 -REL- 0;
#X obj -59 216 expr addr1 = addr1 + 1 \; val1 = $f1;
#X obj -42 173 bus_read;
#X obj -39 140 expr addr1;
#X floatatom 125 178 5 0 0 0 - - - 0;
#X obj -98 557 s disasm_line;
#X obj -53 516 makefilename not-set-yet;
#X obj -163 478 r str_cont;
#X obj -51 303 makefilename $%X\\\ [$%%X]\\\ -REL-;
#X obj -53 433 makefilename not-set-yet;
#X msg -53 347 set \$1;
#N canvas 130 130 450 300 getsigned 0;
#X obj 149 77 inlet;
#X obj 155 201 outlet;
#X obj 155 135 expr if($f1 > 127 \, -(256 - $f1) \, $f1);
#X connect 0 0 2 0;
#X connect 2 0 1 0;
#X restore 134 337 pd getsigned;
#X obj 57 375 expr $f1+ $f2;
#X obj -40 77 inlet;
#X connect 0 0 11 0;
#X connect 0 1 7 0;
#X connect 0 1 10 0;
#X connect 1 0 0 0;
#X connect 1 0 3 0;
#X connect 2 0 1 0;
#X connect 5 0 4 0;
#X connect 6 0 5 0;
#X connect 7 0 9 0;
#X connect 8 0 5 0;
#X connect 9 0 8 0;
#X connect 10 0 11 1;
#X connect 11 0 8 0;
#X connect 12 0 2 0;
#X restore 276 539 pd -REL-;
#N canvas 156 234 1366 685 -ZP- 0;
#X obj 221 216 bus_read;
#X obj 224 183 expr addr1;
#X obj 204 259 expr addr1 = addr1 + 1 \; lo = $f1;
#X obj 109 217 bus_read;
#X obj 112 184 expr addr1;
#X obj 92 260 expr hi = 0;
#X obj 70 97 t b b b;
#X obj -1 475 s disasm_line;
#X obj 6 427 makefilename not-set-yet;
#X obj -78 365 r str_cont;
#X obj 24 248 expr lo;
#X obj 23 358 makefilename $%X\\\ -ZP-;
#X obj 67 27 inlet;
#X connect 0 0 2 0;
#X connect 1 0 0 0;
#X connect 3 0 5 0;
#X connect 4 0 3 0;
#X connect 6 0 10 0;
#X connect 6 1 4 0;
#X connect 6 2 1 0;
#X connect 8 0 7 0;
#X connect 9 0 8 0;
#X connect 10 0 11 0;
#X connect 11 0 8 0;
#X connect 12 0 6 0;
#X restore 275 642 pd -ZP-;
#N canvas 0 234 1362 685 -ZPX- 0;
#X obj 221 216 bus_read;
#X obj 224 183 expr addr1;
#X obj 204 259 expr addr1 = addr1 + 1 \; lo = $f1;
#X obj 109 217 bus_read;
#X obj 112 184 expr addr1;
#X obj 92 260 expr hi = 0;
#X obj 70 97 t b b b;
#X obj -1 475 s disasm_line;
#X obj 6 427 makefilename not-set-yet;
#X obj -78 365 r str_cont;
#X obj 24 248 expr lo;
#X obj 67 27 inlet;
#X obj 23 358 makefilename $%X\\\,\\\ X\\\ -ZPX-;
#X connect 0 0 2 0;
#X connect 1 0 0 0;
#X connect 3 0 5 0;
#X connect 4 0 3 0;
#X connect 6 0 10 0;
#X connect 6 1 4 0;
#X connect 6 2 1 0;
#X connect 8 0 7 0;
#X connect 9 0 8 0;
#X connect 10 0 12 0;
#X connect 11 0 6 0;
#X connect 12 0 8 0;
#X restore 275 731 pd -ZPX-;
#N canvas 0 119 1366 685 -ZPY- 0;
#X obj 221 216 bus_read;
#X obj 224 183 expr addr1;
#X obj 204 259 expr addr1 = addr1 + 1 \; lo = $f1;
#X obj 109 217 bus_read;
#X obj 112 184 expr addr1;
#X obj 92 260 expr hi = 0;
#X obj 70 97 t b b b;
#X obj -1 475 s disasm_line;
#X obj 6 427 makefilename not-set-yet;
#X obj -78 365 r str_cont;
#X obj 24 248 expr lo;
#X obj 67 27 inlet;
#X obj 23 358 makefilename $%X\\\,\\\ Y\\\ -ZPY-;
#X connect 0 0 2 0;
#X connect 1 0 0 0;
#X connect 3 0 5 0;
#X connect 4 0 3 0;
#X connect 6 0 10 0;
#X connect 6 1 4 0;
#X connect 6 2 1 0;
#X connect 8 0 7 0;
#X connect 9 0 8 0;
#X connect 10 0 12 0;
#X connect 11 0 6 0;
#X connect 12 0 8 0;
#X restore 275 827 pd -ZPY-;
#N canvas -119 449 1362 685 -ABX- 0;
#X obj 242 197 bus_read;
#X obj 245 164 expr addr1;
#X obj 225 240 expr addr1 = addr1 + 1 \; lo = $f1;
#X obj 68 198 bus_read;
#X obj 71 165 expr addr1;
#X obj 51 241 expr addr1 = addr1 + 1 \; hi = $f1;
#X obj 168 117 t b b;
#X obj 62 322 << 8;
#X obj 203 377 |;
#X obj 166 649 s disasm_line;
#X obj 166 601 makefilename not-set-yet;
#X obj 51 490 r str_cont;
#X floatatom 223 421 15 0 0 0 - - - 0;
#X obj 163 59 inlet;
#X obj 189 470 makefilename $%X\\\ \\\,\\\ X\\\ -ABX-;
#X obj 697 407 v hi;
#X obj 705 498 v lo;
#X floatatom 365 301 15 0 0 0 - - - 0;
#X floatatom 181 300 15 0 0 0 - - - 0;
#X floatatom 104 217 15 0 0 0 - - - 0;
#X floatatom 330 211 15 0 0 0 - - - 0;
#X connect 0 0 2 0;
#X connect 0 0 20 0;
#X connect 1 0 0 0;
#X connect 2 1 8 1;
#X connect 2 1 17 0;
#X connect 3 0 5 0;
#X connect 3 0 19 0;
#X connect 4 0 3 0;
#X connect 5 1 7 0;
#X connect 5 1 18 0;
#X connect 6 0 4 0;
#X connect 6 1 1 0;
#X connect 7 0 8 0;
#X connect 8 0 12 0;
#X connect 8 0 14 0;
#X connect 10 0 9 0;
#X connect 11 0 10 0;
#X connect 13 0 6 0;
#X connect 14 0 10 0;
#X restore 276 905 pd -ABX-;
#N canvas 0 52 1362 685 -ABY- 0;
#X obj 242 197 bus_read;
#X obj 245 164 expr addr1;
#X obj 225 240 expr addr1 = addr1 + 1 \; lo = $f1;
#X obj 68 198 bus_read;
#X obj 71 165 expr addr1;
#X obj 51 241 expr addr1 = addr1 + 1 \; hi = $f1;
#X obj 168 117 t b b;
#X obj 62 322 << 8;
#X obj 203 377 |;
#X obj 166 649 s disasm_line;
#X obj 166 601 makefilename not-set-yet;
#X obj 51 490 r str_cont;
#X floatatom 223 421 15 0 0 0 - - - 0;
#X obj 163 59 inlet;
#X obj 189 470 makefilename $%X\\\ \\\,\\\ Y\\\ -ABY-;
#X connect 0 0 2 0;
#X connect 1 0 0 0;
#X connect 2 1 8 1;
#X connect 3 0 5 0;
#X connect 4 0 3 0;
#X connect 5 1 7 0;
#X connect 6 0 4 0;
#X connect 6 1 1 0;
#X connect 7 0 8 0;
#X connect 8 0 12 0;
#X connect 8 0 14 0;
#X connect 10 0 9 0;
#X connect 11 0 10 0;
#X connect 13 0 6 0;
#X connect 14 0 10 0;
#X restore 267 998 pd -ABY-;
#N canvas 0 160 1362 685 -IZX- 0;
#X obj 221 216 bus_read;
#X obj 204 259 expr addr1 = addr1 + 1 \; lo = $f1;
#X obj 109 217 bus_read;
#X obj 92 260 expr hi = 0;
#X obj -1 475 s disasm_line;
#X obj 6 427 makefilename not-set-yet;
#X obj -78 365 r str_cont;
#X obj 24 248 expr lo;
#X obj 67 27 inlet;
#X obj 23 358 makefilename ($%X\\\,\\\ X)\\\ -IZX-;
#X obj 732 268 v addr1;
#X obj 679 341 v lo;
#X obj 659 434 v hi;
#X obj 224 183 expr addr1 = $f1;
#X obj 70 97 t b f f;
#X obj 111 184 expr addr1;
#X connect 0 0 1 0;
#X connect 2 0 3 0;
#X connect 5 0 4 0;
#X connect 6 0 5 0;
#X connect 7 0 9 0;
#X connect 8 0 14 0;
#X connect 9 0 5 0;
#X connect 13 0 0 0;
#X connect 14 0 7 0;
#X connect 14 1 15 0;
#X connect 14 2 13 0;
#X connect 15 0 2 0;
#X restore 269 1093 pd -IZX-;
#N canvas 0 111 1362 685 -IZY- 0;
#X obj 221 216 bus_read;
#X obj 224 183 expr addr1;
#X obj 204 259 expr addr1 = addr1 + 1 \; lo = $f1;
#X obj 92 260 expr hi = 0;
#X obj -1 475 s disasm_line;
#X obj 6 427 makefilename not-set-yet;
#X obj -78 365 r str_cont;
#X obj 24 248 expr lo;
#X obj 67 27 inlet;
#X obj 23 358 makefilename ($%X\\\,\\\ Y)\\\ -IZY-;
#X obj 70 97 t b b b;
#X connect 0 0 2 0;
#X connect 1 0 0 0;
#X connect 5 0 4 0;
#X connect 6 0 5 0;
#X connect 7 0 9 0;
#X connect 8 0 10 0;
#X connect 9 0 5 0;
#X connect 10 0 7 0;
#X connect 10 1 3 0;
#X connect 10 2 1 0;
#X restore 256 1186 pd -IZY-;
#N canvas 0 0 1362 669 -IND- 0;
#X obj 242 197 bus_read;
#X obj 245 164 expr addr1;
#X obj 225 240 expr addr1 = addr1 + 1 \; lo = $f1;
#X obj 68 198 bus_read;
#X obj 71 165 expr addr1;
#X obj 51 241 expr addr1 = addr1 + 1 \; hi = $f1;
#X obj 168 117 t b b;
#X obj 62 322 << 8;
#X obj 203 377 |;
#X obj 166 649 s disasm_line;
#X obj 166 601 makefilename not-set-yet;
#X obj 51 490 r str_cont;
#X floatatom 223 421 15 0 0 0 - - - 0;
#X obj 163 59 inlet;
#X obj 189 470 makefilename ($%X)\\\ \\\,\\\ -IND-;
#X connect 0 0 2 0;
#X connect 1 0 0 0;
#X connect 2 1 8 1;
#X connect 3 0 5 0;
#X connect 4 0 3 0;
#X connect 5 1 7 0;
#X connect 6 0 4 0;
#X connect 6 1 1 0;
#X connect 7 0 8 0;
#X connect 8 0 12 0;
#X connect 8 0 14 0;
#X connect 10 0 9 0;
#X connect 11 0 10 0;
#X connect 13 0 6 0;
#X connect 14 0 10 0;
#X restore 245 1314 pd -IND-;
#X obj 235 1284 bng 19 250 50 0 empty empty empty 0 -10 0 12 #fcfcfc #000000 #000000;
#X obj 273 1263 sel 1 0, f 8;
#X obj 240 1376 expr adr_mode == IZYr;
#X obj 259 1403 sel 1 0, f 8;
#N canvas -141 678 1362 685 -IZYr- 0;
#X obj 245 216 bus_read;
#X obj 228 259 expr addr1 = addr1 + 1 \; lo = $f1;
#X obj 90 220 expr hi = 0;
#X obj -1 475 s disasm_line;
#X obj 6 427 makefilename not-set-yet;
#X obj -78 365 r str_cont;
#X obj 24 248 expr lo;
#X obj 67 27 inlet;
#X obj 23 358 makefilename ($%X\\\,\\\ Y)\\\ -IZY-;
#X obj 764 327 v lo;
#X obj 758 400 v hi;
#X floatatom 47 285 5 0 0 0 - - - 0;
#X obj 245 183 expr addr1;
#X obj 70 93 t b b b;
#X floatatom 375 322 5 0 0 0 - - - 0;
#X connect 0 0 1 0;
#X connect 4 0 3 0;
#X connect 5 0 4 0;
#X connect 6 0 8 0;
#X connect 6 0 11 0;
#X connect 7 0 13 0;
#X connect 8 0 4 0;
#X connect 12 0 14 0;
#X connect 12 0 0 0;
#X connect 13 0 6 0;
#X connect 13 1 2 0;
#X connect 13 2 12 0;
#X restore 269 1463 pd -IZYr-;
#X obj 262 1532 sel 1 0, f 8;
#X obj 243 1505 expr adr_mode == ABXr;
#X obj 253 1634 sel 1 0, f 8;
#X obj 234 1607 expr adr_mode == ABYr;
#N canvas 0 52 1362 685 -ABXr- 0;
#X obj 242 197 bus_read;
#X obj 245 164 expr addr1;
#X obj 225 240 expr addr1 = addr1 + 1 \; lo = $f1;
#X obj 68 198 bus_read;
#X obj 71 165 expr addr1;
#X obj 51 241 expr addr1 = addr1 + 1 \; hi = $f1;
#X obj 168 117 t b b;
#X obj 62 322 << 8;
#X obj 203 377 |;
#X obj 166 649 s disasm_line;
#X obj 166 601 makefilename not-set-yet;
#X obj 51 490 r str_cont;
#X floatatom 223 421 15 0 0 0 - - - 0;
#X obj 163 59 inlet;
#X obj 189 470 makefilename $%X\\\ \\\,\\\ X\\\ -ABX-;
#X connect 0 0 2 0;
#X connect 1 0 0 0;
#X connect 2 1 8 1;
#X connect 3 0 5 0;
#X connect 4 0 3 0;
#X connect 5 1 7 0;
#X connect 6 0 4 0;
#X connect 6 1 1 0;
#X connect 7 0 8 0;
#X connect 8 0 12 0;
#X connect 8 0 14 0;
#X connect 10 0 9 0;
#X connect 11 0 10 0;
#X connect 13 0 6 0;
#X connect 14 0 10 0;
#X restore 262 1567 pd -ABXr-;
#N canvas 0 52 1362 685 -ABYr- 0;
#X obj 242 197 bus_read;
#X obj 245 164 expr addr1;
#X obj 225 240 expr addr1 = addr1 + 1 \; lo = $f1;
#X obj 68 198 bus_read;
#X obj 71 165 expr addr1;
#X obj 51 241 expr addr1 = addr1 + 1 \; hi = $f1;
#X obj 168 117 t b b;
#X obj 62 322 << 8;
#X obj 203 377 |;
#X obj 166 649 s disasm_line;
#X obj 166 601 makefilename not-set-yet;
#X obj 51 490 r str_cont;
#X floatatom 223 421 15 0 0 0 - - - 0;
#X obj 163 59 inlet;
#X obj 189 470 makefilename $%X\\\ \\\,\\\ Y\\\ -ABY-;
#X connect 0 0 2 0;
#X connect 1 0 0 0;
#X connect 2 1 8 1;
#X connect 3 0 5 0;
#X connect 4 0 3 0;
#X connect 5 1 7 0;
#X connect 6 0 4 0;
#X connect 6 1 1 0;
#X connect 7 0 8 0;
#X connect 8 0 12 0;
#X connect 8 0 14 0;
#X connect 10 0 9 0;
#X connect 11 0 10 0;
#X connect 13 0 6 0;
#X connect 14 0 10 0;
#X restore 252 1669 pd -ABYr-;
#X connect 1 0 8 0;
#X connect 2 0 5 0;
#X connect 3 0 7 0;
#X connect 5 0 4 0;
#X connect 7 0 6 0;
#X connect 8 0 28 0;
#X connect 9 0 5 0;
#X connect 10 0 13 0;
#X connect 11 0 17 0;
#X connect 12 1 10 0;
#X connect 13 0 15 0;
#X connect 14 0 11 0;
#X connect 15 0 16 0;
#X connect 16 0 11 0;
#X connect 17 0 52 0;
#X connect 18 1 12 0;
#X connect 18 2 53 0;
#X connect 20 0 19 0;
#X connect 21 0 25 0;
#X connect 22 0 0 0;
#X connect 22 0 38 0;
#X connect 23 0 26 0;
#X connect 25 0 29 0;
#X connect 26 0 27 0;
#X connect 27 0 56 0;
#X connect 27 1 30 0;
#X connect 28 0 23 0;
#X connect 28 1 21 0;
#X connect 28 2 54 0;
#X connect 30 0 31 0;
#X connect 31 0 55 0;
#X connect 31 1 33 0;
#X connect 32 0 59 0;
#X connect 32 1 35 0;
#X connect 33 0 32 0;
#X connect 34 0 63 0;
#X connect 34 1 37 0;
#X connect 35 0 34 0;
#X connect 36 0 64 0;
#X connect 36 1 40 0;
#X connect 37 0 36 0;
#X connect 39 0 65 0;
#X connect 39 1 42 0;
#X connect 40 0 39 0;
#X connect 41 0 66 0;
#X connect 41 1 44 0;
#X connect 42 0 41 0;
#X connect 43 0 67 0;
#X connect 43 1 46 0;
#X connect 44 0 43 0;
#X connect 45 0 68 0;
#X connect 45 1 47 0;
#X connect 46 0 45 0;
#X connect 47 0 48 0;
#X connect 48 0 69 0;
#X connect 48 1 50 0;
#X connect 49 0 70 0;
#X connect 49 1 51 0;
#X connect 50 0 49 0;
#X connect 51 0 73 0;
#X connect 53 0 14 0;
#X connect 54 0 18 0;
#X connect 72 0 71 0;
#X connect 73 0 72 0;
#X connect 73 1 74 0;
#X connect 74 0 75 0;
#X connect 75 0 76 0;
#X connect 75 1 78 0;
#X connect 77 0 81 0;
#X connect 77 1 80 0;
#X connect 78 0 77 0;
#X connect 79 0 82 0;
#X connect 80 0 79 0;
#X restore 693 305 pd disasm;
#X f 21;
#X text 143 104 DISASM;
#X text 436 103 offset;
#X obj 760 125 nbx 5 17 0 65535 0 1 empty empty empty 0 -10 0 12 #fcfcfc #000000 #000000 0 256;
#X obj 434 128 nbx 5 17 -13 13 0 1 empty empty empty 0 -10 0 12 #ffffff #000000 #000000 0 256;
#X obj 696 185 expr $f1 + $f2;
#X text 107 122 cur:;
#X obj 368 34 inlet;
#X obj 144 183 outlet;
#X obj 325 182 outlet;
#X obj 698 138 bng 19 250 50 0 empty empty empty 0 -10 0 12 #fcfcfc #000000 #000000;
#N canvas 78 78 450 300 GET_PC 0;
#X obj 89 125 outlet;
#X obj 83 69 r g_br;
#X connect 1 0 0 0;
#X restore 627 20 pd GET_PC;
#X listbox 145 123 37 0 0 0 - - - 0;
#X obj 698 252 t b f;
#N canvas 26 26 450 300 disasm_old 0;
#X obj 144 10 v \$0-lo;
#X obj 229 16 v \$0-hi;
#X obj 303 15 v \$0-val1;
#X obj 40 10 v addr1;
#X obj 345 87 v opcode;
#X obj 170 58 v Sinst;
#N canvas 0 155 1362 685 pc_line 0;
#X symbolatom -258 144 19 0 0 0 - - - 0;
#X msg -256 190 set \$1;
#X symbolatom -258 299 19 0 0 0 - - - 0;
#X obj -260 251 makefilename not-set-yet;
#X msg -257 358 set \$1;
#X obj -261 419 makefilename not-set-yet, f 26;
#X obj -253 74 makefilename $%X:\\\ %%s\\\ %%%%s;
#N canvas 0 130 1362 685 opnames 0;
#X obj 147 108 inlet;
#X obj 245 617 outlet;
#X obj 222 499 list store;
#X msg 209 461 get \$1;
#X floatatom 208 414 5 0 255 0 - - - 0;
#X msg 255 141 BRK ORA KIL SLO NOP ORA ASL SLO PHP ORA ASL ANC NOP ORA ASL SLO BPL ORA KIL SLO NOP ORA ASL SLO CLC ORA NOP SLO NOP ORA ASL SLO JSR AND KIL RLA BIT AND ROL RLA PLP AND ROL ANC BIT AND ROL RLA BMI AND KIL RLA NOP AND ROL RLA SEC AND NOP RLA NOP AND ROL RLA RTI EOR KIL SRE NOP EOR LSR SRE PHA EOR LSR ALR JMP EOR LSR SRE BVC EOR KIL SRE NOP EOR LSR SRE CLI EOR NOP SRE NOP EOR LSR SRE RTS ADC KIL RRA NOP ADC ROR RRA PLA ADC ROR ARR JMP ADC ROR RRA BVS ADC KIL RRA NOP ADC ROR RRA SEI ADC NOP RRA NOP ADC ROR RRA NOP STA NOP SAX STY STA STX SAX DEY NOP TXA UNI STY STA STX SAX BCC STA KIL UNI STY STA STX SAX TYA STA TXS UNI UNI STA UNI UNI LDY LDA LDX LAX LDY LDA LDX LAX TAY LDA TAX UNI LDY LDA LDX LAX BCS LDA KIL LAX LDY LDA LDX LAX CLV LDA TSX UNI LDY LDA LDX LAX CPY CMP NOP DCP CPY CMP DEC DCP INY CMP DEX AXS CPY CMP DEC DCP BNE CMP KIL DCP NOP CMP DEC DCP CLD CMP NOP DCP NOP CMP DEC DCP CPX SBC NOP ISC CPX SBC INC ISC INX SBC NOP SBC CPX SBC INC ISC BEQ SBC KIL ISC NOP SBC INC ISC SED SBC NOP ISC NOP SBC INC ISC, f 70;
#X symbolatom 241 549 44 0 0 0 - - - 0;
#X obj 858 499 expr oplengths[$f1];
#N canvas 0 50 450 250 (subpatch) 0;
#X array opLengths 16 float 3;
#A 0 1 2 2 2 2 2 2 3 3 3 0 3 2 2 3 3;
#X coords 0 1 16 -1 200 140 1;
#X restore 1008 861 graph;
#X obj 850 116 inlet;
#X obj 843 602 outlet;
#X obj 267 79 loadbang;
#X connect 0 0 3 0;
#X connect 2 0 6 0;
#X connect 3 0 2 0;
#X connect 4 0 3 0;
#X connect 5 0 2 1;
#X connect 6 0 1 0;
#X connect 7 0 10 0;
#X connect 9 0 7 0;
#X connect 11 0 5 0;
#X restore -27 144 pd opnames;
#X msg -94 198 symbol \$1;
#X obj 290 587 print -n;
#X obj -63 -14 inlet;
#X obj 36 -10 inlet;
#X obj 232 25 inlet;
#X msg -154 371 symbol \$1;
#X obj -242 611 outlet;
#X symbolatom -106 530 26 0 0 0 - - - 0;
#X obj 129 61 bng 19 250 50 0 empty empty empty 0 -10 0 12 #fcfcfc #000000 #000000;
#X floatatom -156 16 5 0 0 0 - - - 0;
#X floatatom 7 46 5 0 0 0 - - - 0;
#X obj -80 21 bng 19 250 50 0 empty empty empty 0 -10 0 12 #fcfcfc #000000 #000000;
#X symbolatom 152 137 12 0 0 0 - - - 0;
#X obj -203 -7 bng 19 250 50 0 empty empty empty 0 -10 0 12 #fcfcfc #000000 #000000;
#X obj 329 28 inlet;
#X obj 104 585 expr res;
#X obj 124 518 v res;
#X msg 200 520 \$1;
#X obj 193 331 bng 19 250 50 0 empty empty empty 0 -10 0 12 #fcfcfc #000000 #000000;
#X msg -160 563 \$1, f 4;
#X msg -140 479 set \$1;
#X obj -75 605 outlet;
#X connect 0 0 1 0;
#X connect 1 0 3 0;
#X connect 2 0 4 0;
#X connect 3 0 2 0;
#X connect 4 0 5 0;
#X connect 5 0 28 0;
#X connect 6 0 0 0;
#X connect 7 0 8 0;
#X connect 8 0 3 0;
#X connect 10 0 17 0;
#X connect 11 0 18 0;
#X connect 12 0 20 0;
#X connect 13 0 5 0;
#X connect 15 0 27 0;
#X connect 15 0 29 0;
#X connect 16 0 20 0;
#X connect 17 0 6 0;
#X connect 17 0 19 0;
#X connect 18 0 7 0;
#X connect 18 0 16 0;
#X connect 19 0 18 0;
#X connect 20 0 13 0;
#X connect 21 0 17 0;
#X connect 22 0 26 0;
#X connect 26 0 15 0;
#X connect 27 0 14 0;
#X connect 28 0 15 0;
#X restore 664 290 pd pc_line;
#X symbolatom 747 354 26 0 0 0 Sinst - - 0;
#X floatatom 553 221 5 0 0 0 addr1 - - 0;
#X floatatom 692 249 5 0 255 0 opcode - - 0;
#X symbolatom 919 508 14 0 0 0 addr_mode S_ADRMODE - 0;
#X obj 540 348 print -n;
#X obj 632 25 inlet;
#X obj 697 25 inlet;
#X obj 760 23 inlet;
#X obj 325 155 v line_addr;
#X obj 681 111 expr addr1 = $f1;
#X floatatom 729 66 5 0 0 0 - - - 0;
#X obj 692 203 bus_read;
#X obj 177 199 v nstop;
#X obj 813 98 expr nstop = $f1;
#X obj 742 426 outlet;
#X floatatom 798 64 5 0 0 0 - - - 0;
#X obj 498 572 sel 1, f 8;
#X obj 316 721 s S_ADRMODE;
#X obj 353 617 bng 19 250 50 0 empty empty empty 0 -10 0 12 #fcfcfc #000000 #000000;
#X obj 556 692 sel 1, f 8;
#X obj 543 826 s S_ADRMODE;
#X symbolatom 338 682 10 0 0 0 - - - 0;
#X obj 554 728 bng 19 250 50 0 empty empty empty 0 -10 0 12 #fcfcfc #000000 #000000;
#X obj 833 236 expr opcode = $f1;
#X obj 497 522 expr arr_addressingmodes[opcode] == IMP;
#X obj 557 643 expr arr_addressingmodes[opcode] == IMM;
#X obj 668 806 sel 1, f 8;
#X obj 655 940 s S_ADRMODE;
#X obj 666 842 bng 19 250 50 0 empty empty empty 0 -10 0 12 #fcfcfc #000000 #000000;
#X obj 669 757 expr arr_addressingmodes[opcode] == ZP;
#X symbolatom 664 883 10 0 0 0 - - - 0;
#X obj 773 906 sel 1, f 8;
#X obj 760 1040 s S_ADRMODE;
#X obj 771 942 bng 19 250 50 0 empty empty empty 0 -10 0 12 #fcfcfc #000000 #000000;
#X obj 774 857 expr arr_addressingmodes[opcode] == ZPX;
#X symbolatom 769 983 10 0 0 0 - - - 0;
#X obj 866 1000 sel 1, f 8;
#X obj 853 1134 s S_ADRMODE;
#X obj 864 1036 bng 19 250 50 0 empty empty empty 0 -10 0 12 #fcfcfc #000000 #000000;
#X obj 867 951 expr arr_addressingmodes[opcode] == ZPY;
#X symbolatom 862 1077 10 0 0 0 - - - 0;
#X obj 953 1078 sel 1, f 8;
#X obj 940 1212 s S_ADRMODE;
#X obj 951 1114 bng 19 250 50 0 empty empty empty 0 -10 0 12 #fcfcfc #000000 #000000;
#X obj 954 1029 expr arr_addressingmodes[opcode] == IZX;
#X symbolatom 965 1172 10 0 0 0 - - - 0;
#X obj 1060 1172 sel 1, f 8;
#X obj 1047 1306 s S_ADRMODE;
#X obj 1058 1208 bng 19 250 50 0 empty empty empty 0 -10 0 12 #fcfcfc #000000 #000000;
#X obj 1061 1123 expr arr_addressingmodes[opcode] == IZY;
#X symbolatom 1056 1249 10 0 0 0 - - - 0;
#X obj 1151 1284 sel 1, f 8;
#X obj 1138 1418 s S_ADRMODE;
#X obj 1149 1320 bng 19 250 50 0 empty empty empty 0 -10 0 12 #fcfcfc #000000 #000000;
#X symbolatom 1078 1360 12 0 0 0 - - - 0;
#X obj 1152 1235 expr arr_addressingmodes[opcode] == ABS;
#X obj 1264 1394 sel 1, f 8;
#X obj 1251 1528 s S_ADRMODE;
#X obj 1262 1430 bng 19 250 50 0 empty empty empty 0 -10 0 12 #fcfcfc #000000 #000000;
#X obj 1265 1345 expr arr_addressingmodes[opcode] == ABX;
#X symbolatom 1260 1471 10 0 0 0 - - - 0;
#X obj 1383 1540 sel 1, f 8;
#X obj 1370 1674 s S_ADRMODE;
#X obj 1381 1576 bng 19 250 50 0 empty empty empty 0 -10 0 12 #fcfcfc #000000 #000000;
#X symbolatom 1379 1617 10 0 0 0 - - - 0;
#X obj 1384 1491 expr arr_addressingmodes[opcode] == ABY;
#X obj 1499 1693 sel 1, f 8;
#X obj 1486 1827 s S_ADRMODE;
#X obj 1497 1729 bng 19 250 50 0 empty empty empty 0 -10 0 12 #fcfcfc #000000 #000000;
#X obj 1500 1644 expr arr_addressingmodes[opcode] == IND;
#X symbolatom 1495 1770 10 0 0 0 - - - 0;
#X obj 1816 2018 sel 1, f 8;
#X obj 1764 2319 s S_ADRMODE;
#X obj 1814 2054 bng 19 250 50 0 empty empty empty 0 -10 0 12 #fcfcfc #000000 #000000;
#X symbolatom 1773 2262 23 0 0 0 - - - 0;
#X obj 1817 1969 expr arr_addressingmodes[opcode] == REL;
#X msg 281 654 set -IMP-;
#X obj 248 559 loadbang;
#X obj 447 689 loadbang;
#X msg 445 1117 set -ZP-;
#X obj 637 989 loadbang;
#X obj 725 1106 loadbang;
#X obj 808 1208 loadbang;
#X obj 914 1269 loadbang;
#X msg 661 1028 set -ZPX-;
#X msg 749 1145 set -ZPY-;
#X msg 832 1247 set -IZX-;
#X msg 938 1308 set -IZY-;
#X obj 1113 1458 loadbang;
#X msg 1137 1497 set -ABX-;
#X obj 1225 1584 loadbang;
#X msg 1249 1623 set -ABX-;
#X symbolatom 552 769 12 0 0 0 - - - 0;
#X obj 601 63 bng 19 250 50 0 empty empty empty 0 -10 0 12 #fcfcfc #000000 #000000;
#X obj 682 55 bng 19 250 50 0 empty empty empty 0 -10 0 12 #fcfcfc #000000 #000000;
#X obj 799 193 bng 19 250 50 0 empty empty empty 0 -10 0 12 #fcfcfc #000000 #000000;
#X obj 1291 1696 loadbang;
#X msg 1319 1843 set -IND-;
#X msg 1609 2185 set -REL-;
#X obj 220 860 makefilename %X;
#X obj 226 820 bus_read;
#X obj 215 773 expr addr1 = addr1 + 1 \; addr1;
#X obj 495 110 expr addr1 = addr1 + 1 \; addr1;
#X obj 726 1541 makefilename %X;
#X obj 671 1432 bus_read;
#X msg 726 1584 set $\$1\\\ -ABS-;
#X obj 783 1473 bus_read;
#X obj 633 1339 expr addr1 = addr1 + 1 \; addr1 \; addr1 = addr1 + 1 \; addr1;
#X obj 731 1476 << 8;
#X obj 762 1509 |;
#X obj 120 1132 makefilename %X;
#X obj 126 1092 bus_read;
#X obj 102 1004 expr addr1 = addr1 + 1 \; addr1 \; 0;
#X msg 124 1182 set $\$1\\\ -ZP-;
#X obj 1255 2047 bus_read;
#N canvas 130 130 450 300 getsigned 0;
#X obj 381 74 inlet;
#X obj 149 77 inlet;
#X obj 155 201 outlet;
#X obj 155 135 expr if($f2 > 127 \, -(2556 - $f2) \, $f2);
#X connect 0 0 3 1;
#X connect 1 0 3 0;
#X connect 3 0 2 0;
#X restore 1410 2200 pd getsigned;
#X obj 1216 1876 bng 19 250 50 0 empty empty empty 0 -10 0 12 #fcfcfc #000000 #000000;
#X symbolatom 1262 2142 23 0 0 0 - - - 0;
#X obj 1270 2093 makefilename $%X\\\ [%%X]\\\ -REL-;
#X msg 1255 2186 set \$1;
#X obj 1251 2230 makefilename not-set-yet;
#X symbolatom 1252 2273 23 0 0 0 - - - 0;
#X msg 1265 2310 set \$1;
#X obj 1227 1979 expr addr1 + 1 \; addr1 = addr1 + 1 \; addr1 = 16372 \;;
#X msg 220 903 set #$\$1\\\ -IMM-;
#X floatatom 146 845 5 0 0 0 - - - 0;
#X floatatom 485 180 5 0 0 0 - - - 0;
#X floatatom 374 830 5 0 0 0 - - - 0;
#X connect 6 1 7 0;
#X connect 7 0 21 0;
#X connect 8 0 6 0;
#X connect 9 0 6 1;
#X connect 9 0 30 0;
#X connect 10 0 6 2;
#X connect 12 0 100 0;
#X connect 13 0 17 0;
#X connect 14 0 22 0;
#X connect 17 0 16 0;
#X connect 18 0 9 0;
#X connect 22 0 20 0;
#X connect 23 0 25 0;
#X connect 23 1 32 0;
#X connect 25 0 28 0;
#X connect 26 0 29 0;
#X connect 26 1 36 0;
#X connect 28 0 24 0;
#X connect 29 0 99 0;
#X connect 29 0 108 0;
#X connect 31 0 23 0;
#X connect 32 0 26 0;
#X connect 33 0 35 0;
#X connect 33 1 41 0;
#X connect 35 0 37 0;
#X connect 35 0 119 0;
#X connect 36 0 33 0;
#X connect 37 0 34 0;
#X connect 38 0 40 0;
#X connect 38 1 46 0;
#X connect 40 0 42 0;
#X connect 41 0 38 0;
#X connect 42 0 39 0;
#X connect 43 0 45 0;
#X connect 43 1 51 0;
#X connect 45 0 47 0;
#X connect 46 0 43 0;
#X connect 47 0 44 0;
#X connect 48 0 50 0;
#X connect 48 1 56 0;
#X connect 50 0 52 0;
#X connect 51 0 48 0;
#X connect 52 0 49 0;
#X connect 53 0 55 0;
#X connect 53 1 62 0;
#X connect 55 0 57 0;
#X connect 56 0 53 0;
#X connect 57 0 54 0;
#X connect 58 0 60 0;
#X connect 58 1 66 0;
#X connect 60 0 61 0;
#X connect 60 0 114 0;
#X connect 61 0 59 0;
#X connect 62 0 58 0;
#X connect 63 0 65 0;
#X connect 63 1 72 0;
#X connect 65 0 67 0;
#X connect 66 0 63 0;
#X connect 67 0 64 0;
#X connect 68 0 70 0;
#X connect 68 1 76 0;
#X connect 70 0 71 0;
#X connect 71 0 69 0;
#X connect 72 0 68 0;
#X connect 73 0 75 0;
#X connect 73 1 82 0;
#X connect 75 0 77 0;
#X connect 76 0 73 0;
#X connect 77 0 74 0;
#X connect 78 0 80 0;
#X connect 80 0 81 0;
#X connect 80 0 130 0;
#X connect 81 0 79 0;
#X connect 82 0 78 0;
#X connect 83 0 28 0;
#X connect 84 0 83 0;
#X connect 84 0 25 0;
#X connect 86 0 37 0;
#X connect 87 0 91 0;
#X connect 87 0 40 0;
#X connect 88 0 92 0;
#X connect 88 0 45 0;
#X connect 89 0 93 0;
#X connect 89 0 50 0;
#X connect 90 0 94 0;
#X connect 90 0 55 0;
#X connect 91 0 42 0;
#X connect 92 0 47 0;
#X connect 93 0 52 0;
#X connect 94 0 57 0;
#X connect 95 0 65 0;
#X connect 95 0 96 0;
#X connect 96 0 67 0;
#X connect 97 0 98 0;
#X connect 97 0 70 0;
#X connect 98 0 71 0;
#X connect 99 0 27 0;
#X connect 100 0 109 0;
#X connect 101 0 17 0;
#X connect 102 0 6 3;
#X connect 103 0 104 0;
#X connect 103 0 75 0;
#X connect 104 0 77 0;
#X connect 106 0 131 0;
#X connect 107 0 106 0;
#X connect 107 0 132 0;
#X connect 108 1 134 0;
#X connect 108 1 107 0;
#X connect 109 0 133 0;
#X connect 109 1 102 0;
#X connect 109 1 8 0;
#X connect 109 1 18 0;
#X connect 110 0 112 0;
#X connect 111 0 115 0;
#X connect 112 0 61 0;
#X connect 113 0 116 1;
#X connect 114 0 111 0;
#X connect 114 2 113 0;
#X connect 115 0 116 0;
#X connect 116 0 110 0;
#X connect 117 0 120 0;
#X connect 118 0 117 0;
#X connect 119 1 118 0;
#X connect 120 0 37 0;
#X connect 121 0 125 0;
#X connect 122 0 127 0;
#X connect 123 0 130 0;
#X connect 124 0 126 0;
#X connect 125 0 124 0;
#X connect 126 0 127 0;
#X connect 127 0 128 0;
#X connect 128 0 129 0;
#X connect 129 0 81 0;
#X connect 130 0 122 1;
#X connect 130 0 122 0;
#X connect 130 2 121 0;
#X connect 131 0 99 0;
#X connect 133 0 31 0;
#X restore 745 457 pd disasm_old;
#X connect 0 0 12 0;
#X connect 3 0 5 1;
#X connect 3 0 10 0;
#X connect 4 0 5 0;
#X connect 4 0 9 0;
#X connect 5 0 13 0;
#X connect 7 0 4 0;
#X connect 10 0 5 0;
#X connect 11 0 3 0;
#X connect 12 0 8 0;
#X connect 13 0 0 0;
#X connect 13 1 0 1;
#X coords 0 -1 1 1 420 60 2 100 100;
