#N canvas 0 26 1362 685 12;
#X obj 163 86 inlet;
#X obj 214 86 inlet;
#X obj 330 673 spigot;
#X obj 399 709 expr cyclesleft = cyclesleft + 1;
#X obj 395 869 expr cyclesleft = cyclesleft + 1;
#X obj 395 765 expr arr_br[PC] >> 8 != (arr_br[PC] + $f2) >> 8;
#X obj 394 818 spigot;
#X obj 287 779 expr arr_br[PC] = arr_br[PC] + $f2;
#X obj 162 182 expr $f1;
#X obj 158 227 sel 0 1;
#N canvas 0 52 1354 685 SET_CYC 0;
#X obj 192 41 inlet;
#X obj 475 642 r cyclesleft;
#X obj 183 96 expr cyclesleft = $f1;
#X obj 186 166 s cyclesleft;
#X connect 0 0 2 0;
#X connect 2 0 3 0;
#X restore 233 321 pd SET_CYC;
#X obj 198 261 t b b;
#X obj 178 398 sel 0 1;
#X obj 192 346 expr (arr_br[PC] >> 8) != ((arr_br[PC] + $f2) >> 8);
#N canvas 0 52 1354 685 SET_CYC 0;
#X obj 192 41 inlet;
#X obj 475 642 r cyclesleft;
#X obj 183 96 expr cyclesleft = $f1;
#X obj 186 166 s cyclesleft;
#X connect 0 0 2 0;
#X connect 2 0 3 0;
#X restore 244 508 pd SET_CYC;
#X obj 209 441 t b b;
#X obj 141 580 expr arr_br[PC] = arr_br[PC] + $f2;
#X obj 232 293 expr cyclesleft = cyclesleft + 1;
#X obj 241 477 expr cyclesleft = cyclesleft + 1;
#X floatatom 191 140 5 0 0 0 - - - 0;
#X obj 136 265 t b f;
#N canvas 0 52 1354 685 SET_CYC2 0;
#X obj 192 41 inlet;
#X obj 475 642 r cyclesleft;
#X obj 183 96 expr cyclesleft = $f1;
#X obj 186 166 s s_cyclesleft;
#X connect 0 0 2 0;
#X connect 2 0 3 0;
#X restore 365 509 pd SET_CYC2;
#X connect 0 0 8 0;
#X connect 1 0 13 1;
#X connect 1 0 16 1;
#X connect 2 0 3 0;
#X connect 2 0 7 0;
#X connect 3 0 5 0;
#X connect 5 0 6 0;
#X connect 5 0 6 1;
#X connect 6 0 4 0;
#X connect 8 0 9 0;
#X connect 9 1 20 0;
#X connect 11 0 13 0;
#X connect 11 1 17 0;
#X connect 12 1 15 0;
#X connect 13 0 12 0;
#X connect 15 1 18 0;
#X connect 17 0 10 0;
#X connect 18 0 14 0;
#X connect 18 0 21 0;
#X connect 20 0 16 0;
#X connect 20 1 11 0;
