#N canvas 0 147 1362 685 12;
#X obj 734 241 bng 19 250 50 0 empty empty empty 0 -10 0 12 #00ff04 #000000 #000000;
#X obj 452 243 bng 19 250 50 0 empty empty empty 0 -10 0 12 #00ff04 #000000 #000000;
#X obj 232 243 bng 19 250 50 0 empty empty empty 0 -10 0 12 #00ff04 #000000 #000000;
#X obj 156 243 bng 19 250 50 0 empty empty empty 0 -10 0 12 #00ff04 #000000 #000000;
#X obj 528 243 bng 19 250 50 0 empty empty empty 0 -10 0 12 #00ff04 #000000 #000000;
#X obj 802 243 bng 19 250 50 0 empty empty empty 0 -10 0 12 #00ff04 #000000 #000000;
#X obj 605 243 bng 19 250 50 0 empty empty empty 0 -10 0 12 #00ff04 #000000 #000000;
#X obj 958 239 bng 19 250 50 0 empty empty empty 0 -10 0 12 #00ff04 #000000 #000000;
#X obj 299 243 bng 19 250 50 0 empty empty empty 0 -10 0 12 #00ff04 #000000 #000000;
#X obj 371 243 bng 19 250 50 0 empty empty empty 0 -10 0 12 #00ff04 #000000 #000000;
#X obj 670 243 bng 19 250 50 0 empty empty empty 0 -10 0 12 #00ff04 #000000 #000000;
#X obj 1035 240 bng 19 250 50 0 empty empty empty 0 -10 0 12 #00ff04 #000000 #000000;
#X obj 1170 242 bng 19 250 50 0 empty empty empty 0 -10 0 12 #00ff04 #000000 #000000;
#X obj 1114 242 bng 19 250 50 0 empty empty empty 0 -10 0 12 #00ff04 #000000 #000000;
#X obj 162 17 inlet;
#X obj 673 626 outlet;
#N canvas 0 162 1354 685 IMM 0;
#X obj 142 44 inlet;
#X obj 137 250 outlet;
#X obj 137 204 v tempval;
#X obj 132 171 bng 19 250 50 0 empty empty empty 0 -10 0 12 #fcfcfc #000000 #000000;
#X obj 239 124 expr arr_br[PC] = arr_br[PC] + 1 \; tempval = arr_br[PC];
#X obj 637 187 v tempval;
#X obj 139 78 t b b;
#X obj 297 320 expr arr_br[PC];
#X floatatom 301 405 5 0 0 0 - - - 0;
#X obj 301 256 bng 19 250 50 0 empty empty empty 0 -10 0 12 #fcfcfc #000000 #000000;
#X connect 0 0 6 0;
#X connect 2 0 1 0;
#X connect 3 0 2 0;
#X connect 4 0 9 0;
#X connect 6 0 3 0;
#X connect 6 1 4 0;
#X connect 7 0 8 0;
#X connect 9 0 7 0;
#X restore 224 366 pd IMM;
#N canvas 778 189 450 300 IMP 0;
#X floatatom 352 99 5 0 0 0 - - - 0;
#X obj 352 122 outlet;
#X obj 350 69 inlet;
#X connect 0 0 1 0;
#X connect 2 0 0 0;
#X restore 140 366 pd IMP;
#N canvas 26 26 450 300 ZP 0;
#X obj 96 145 bus_read;
#X obj 90 62 expr arr_br[PC] = arr_br[PC] + 1 \; arr_br[PC], f 34;
#X obj 94 30 inlet;
#X obj 110 204 outlet;
#X connect 0 0 3 0;
#X connect 1 1 0 0;
#X connect 2 0 1 0;
#X restore 293 366 pd ZP;
#N canvas 52 52 450 300 ZPX 0;
#X obj 89 175 bus_read;
#X obj 94 102 expr arr_br[PC] = arr_br[PC] + 1 \; arr_br[PC], f 34;
#X obj 83 213 expr $f1 + arr_r[X] & 255;
#X obj 99 36 inlet;
#X obj 86 256 outlet;
#X connect 0 0 2 0;
#X connect 1 1 0 0;
#X connect 2 0 4 0;
#X connect 3 0 1 0;
#X restore 384 366 pd ZPX;
#N canvas 257 220 450 300 ZPY 0;
#X obj 76 144 bus_read;
#X obj 81 71 expr arr_br[PC] = arr_br[PC] + 1 \; arr_br[PC], f 34;
#X obj 70 182 expr $f1 + arr_r[Y] & 255;
#X obj 106 36 inlet;
#X obj 80 226 outlet;
#X connect 0 0 2 0;
#X connect 1 1 0 0;
#X connect 2 0 4 0;
#X connect 3 0 1 0;
#X restore 477 366 pd ZPY;
#N canvas 0 56 1362 685 IZX 0;
#X obj 268 191 bus_read;
#X obj 186 138 expr arr_br[PC] = arr_br[PC] + 1 \; arr_br[PC], f 34;
#X obj 119 63 inlet;
#X obj 234 241 expr ($f1 + arr_r[X]) & 255;
#X obj 54 389 bus_read;
#X obj 59 352 expr addr1;
#X obj 68 452 expr $f1 | $f2 << 8;
#X obj 170 382 bus_read;
#X obj 175 345 expr (addr1 + 1) & 255;
#X obj 81 127 t b b b;
#X obj 92 546 outlet;
#X obj 572 433 v addr1;
#X obj 234 301 expr addr1 = $f1;
#X connect 0 0 3 0;
#X connect 1 1 0 0;
#X connect 2 0 9 0;
#X connect 3 0 12 0;
#X connect 4 0 6 0;
#X connect 5 0 4 0;
#X connect 6 0 10 0;
#X connect 7 0 6 1;
#X connect 8 0 7 0;
#X connect 9 0 5 0;
#X connect 9 1 8 0;
#X connect 9 2 1 0;
#X restore 555 366 pd IZX;
#N canvas 0 0 1362 685 IZY 0;
#X obj 731 357 bus_read;
#X obj 721 296 expr arr_br[PC] = arr_br[PC] + 1 \; arr_br[PC], f 34;
#X obj 284 115 inlet;
#X obj 159 492 outlet;
#X obj 632 366 bus_read;
#X obj 481 100 v adr;
#X obj 482 135 v radr;
#X obj 732 395 expr adr = $f1;
#X obj 637 292 expr adr;
#X obj 286 214 t b b b f, f 82;
#X obj 491 418 expr $f2 | $f1 << 8;
#X obj 459 345 bus_read;
#X obj 453 312 expr (adr + 1) & $f1;
#X obj 168 322 expr (radr + arr_r[Y]) & 65535;
#X connect 0 0 7 0;
#X connect 1 1 0 0;
#X connect 2 0 9 0;
#X connect 4 0 10 1;
#X connect 8 0 4 0;
#X connect 9 0 13 0;
#X connect 9 1 12 0;
#X connect 9 2 8 0;
#X connect 9 3 1 0;
#X connect 11 0 10 0;
#X connect 12 0 11 0;
#X connect 13 0 3 0;
#X restore 630 366 pd IZY;
#N canvas 0 155 1362 685 ABS 0;
#X obj 582 291 bus_read;
#X obj 557 239 expr arr_br[PC] = arr_br[PC] + 1 \; arr_br[PC], f 34;
#X obj 332 107 inlet;
#X obj 304 294 bus_read;
#X obj 206 238 expr arr_br[PC] = arr_br[PC] + 1 \; arr_br[PC], f 43;
#X obj 325 484 outlet;
#X obj 1501 442 v \$0-temp;
#X obj 330 147 t b b;
#X floatatom 418 453 5 0 0 0 - - - 0;
#X obj 320 403 expr adr1 | ($f2 << 8);
#X obj 974 358 v adr1;
#X obj 311 345 t b f;
#X obj 585 354 expr adr1 = $f1;
#X connect 0 0 12 0;
#X connect 1 1 0 0;
#X connect 2 0 7 0;
#X connect 3 0 11 0;
#X connect 4 1 3 0;
#X connect 7 0 4 0;
#X connect 7 1 1 0;
#X connect 9 0 5 0;
#X connect 9 0 8 0;
#X connect 11 0 9 0;
#X connect 11 1 9 1;
#X restore 692 366 pd ABS;
#X obj 87 786 sel 0 1 2 3 4 5 6 7 8 9 10 11 12 13 14 15, f 145;
#N canvas 0 78 1362 685 ABX 0;
#X obj 714 37 inlet;
#X obj 465 325 outlet;
#X obj 964 260 bus_read;
#X obj 946 184 expr arr_br[PC] = arr_br[PC] + 1 \; arr_br[PC], f 34;
#X obj 675 167 expr arr_br[PC] = arr_br[PC] + 1 \; arr_br[PC], f 34;
#X obj 809 242 bus_read;
#X obj 674 121 t b b b, f 23;
#X obj 1152 401 bng 19 250 50 0 empty empty empty 0 -10 0 12 #fcfcfc #000000 #000000;
#X floatatom 1102 472 5 0 0 0 - - - 0;
#X floatatom 742 396 14 0 0 0 - - - 0;
#X floatatom 550 369 14 0 0 0 - - - 0;
#X floatatom 1176 234 5 0 0 0 - - - 0;
#X floatatom 738 229 5 0 0 0 - - - 0;
#X floatatom 265 313 5 0 0 0 - - - 0;
#X obj 256 261 expr arr_br[PC];
#X obj 251 169 bng 19 250 50 0 empty empty empty 0 -10 0 12 #fcfcfc #000000 #000000;
#X obj 995 106 bng 19 250 50 0 empty empty empty 0 -10 0 12 #fcfcfc #000000 #000000;
#X obj 998 422 v adr;
#X obj 475 273 expr (adr + arr_r[X]) & 65535;
#X obj 743 314 expr adr = adr | ($f1 << 8);
#X obj 986 298 expr adr = $f1;
#X connect 0 0 6 0;
#X connect 2 0 20 0;
#X connect 3 1 2 0;
#X connect 3 1 11 0;
#X connect 4 1 5 0;
#X connect 4 1 12 0;
#X connect 5 0 19 0;
#X connect 6 0 18 0;
#X connect 6 1 4 0;
#X connect 6 2 3 0;
#X connect 14 0 13 0;
#X connect 15 0 14 0;
#X connect 18 0 1 0;
#X connect 18 0 10 0;
#X connect 19 0 9 0;
#X connect 20 0 8 0;
#X restore 755 366 pd ABX;
#N canvas 0 26 1362 685 ABY 0;
#X obj -83 712 bus_read;
#X obj 714 37 inlet;
#X obj 465 325 outlet;
#X obj 951 227 bus_read;
#X obj 946 184 expr arr_br[PC] = arr_br[PC] + 1 \; arr_br[PC], f 34;
#X obj 949 301 expr adr = $f1;
#X obj 675 167 expr arr_br[PC] = arr_br[PC] + 1 \; arr_br[PC], f 34;
#X obj 809 242 bus_read;
#X obj 743 314 expr adr = adr | $f1 << 8;
#X obj 475 273 expr (adr + arr_r[Y]) & 65535;
#X obj 674 121 t b b b, f 23;
#X obj 998 422 v adr;
#X connect 1 0 10 0;
#X connect 3 0 5 0;
#X connect 4 1 3 0;
#X connect 6 1 7 0;
#X connect 7 0 8 0;
#X connect 9 0 2 0;
#X connect 10 0 9 0;
#X connect 10 1 6 0;
#X connect 10 2 4 0;
#X restore 832 366 pd ABY;
#N canvas 17 44 1362 685 IND 0;
#X obj 153 97 inlet;
#X obj 100 531 outlet;
#X obj 1204 41 v addrl;
#X obj 1204 88 v addrh;
#X obj 1198 176 v raddr;
#X obj 835 263 expr arr_br[PC] = arr_br[PC] + 1 \; arr_br[PC], f 34;
#X obj 844 350 expr addrl = $f1;
#X obj 534 301 expr arr_br[PC] = arr_br[PC] + 1 \; arr_br[PC], f 34;
#X obj 542 386 expr addrh = $f1;
#X obj 348 366 bus_read;
#X obj 546 351 bus_read;
#X obj 843 312 bus_read;
#X obj 227 311 expr addrl | (addrh << 8), f 34;
#X obj 345 413 expr raddr = $f1;
#X obj 38 478 expr raddr = raddr | ($f1) << 8;
#X obj 39 438 bus_read;
#X obj 27 385 expr ((addrl + 1) & 255) | (addrh << 8);
#X obj 138 211 t b b b b;
#X connect 0 0 17 0;
#X connect 5 1 11 0;
#X connect 7 1 10 0;
#X connect 9 0 13 0;
#X connect 10 0 8 0;
#X connect 11 0 6 0;
#X connect 12 0 9 0;
#X connect 14 0 1 0;
#X connect 15 0 14 0;
#X connect 16 0 15 0;
#X connect 17 0 16 0;
#X connect 17 1 12 0;
#X connect 17 2 7 0;
#X connect 17 3 5 0;
#X restore 973 364 pd IND;
#N canvas -137 121 1362 685 REL 0;
#X obj 129 94 inlet;
#X obj 179 261 outlet;
#X obj 178 174 bus_read;
#X obj 173 131 expr arr_br[PC] = arr_br[PC] + 1 \; arr_br[PC], f 34;
#N canvas 842 287 450 300 getsigned 0;
#X obj 149 77 inlet;
#X obj 155 201 outlet;
#X obj 155 135 expr if($f1 > 127 \, -(256 - $f1) \, $f1);
#X floatatom 218 189 5 0 0 0 - - - 0;
#X floatatom 240 97 5 0 0 0 - - - 0;
#X connect 0 0 2 0;
#X connect 0 0 4 0;
#X connect 2 0 1 0;
#X connect 2 0 3 0;
#X restore 176 222 pd getsigned;
#X connect 0 0 3 0;
#X connect 2 0 4 0;
#X connect 3 1 2 0;
#X connect 4 0 1 0;
#X restore 1047 364 pd REL;
#X obj 180 154 sel 0 1 2 3 4 5 6 7 8 9 10 11 12 13 14 15, f 145;
#X obj 1249 240 bng 19 250 50 0 empty empty empty 0 -10 0 12 #00ff04 #000000 #000000;
#N canvas 0 130 1362 685 IZYr 0;
#X obj 1017 364 bus_read;
#X obj 1007 303 expr arr_br[PC] = arr_br[PC] + 1 \; arr_br[PC], f 34;
#X obj 284 115 inlet;
#X obj 159 492 outlet;
#X obj 918 373 bus_read;
#X obj 481 100 v adr;
#X obj 482 135 v radr;
#X obj 1018 402 expr adr = $f1;
#X obj 923 299 expr adr;
#X obj 777 425 expr $f2 | $f1 << 8;
#X obj 745 352 bus_read;
#X obj 739 319 expr (adr + 1) & $f1;
#X obj 168 322 expr (radr + arr_r[Y]) & 65535;
#X obj 285 214 t b f b b f, f 82;
#X obj 344 369 expr if ((radr >> 8) < ((radr + arr_r[Y]) >> 8) \, 1 \, 0);
#X obj 352 410 sel 1 0;
#X obj 347 442 expr cyclesleft + 1;
#N canvas 0 52 1362 685 SET_CYC 0;
#X obj 192 41 inlet;
#X obj 475 642 r cyclesleft;
#X obj 183 96 expr cyclesleft = $f1;
#X obj 186 166 s cyclesleft;
#X connect 0 0 2 0;
#X connect 2 0 3 0;
#X restore 345 488 pd SET_CYC;
#N canvas 0 52 1354 685 SET_CYC2 0;
#X obj 192 41 inlet;
#X obj 475 642 r cyclesleft;
#X obj 183 96 expr cyclesleft = $f1;
#X obj 186 166 s s_cyclesleft;
#X connect 0 0 2 0;
#X connect 2 0 3 0;
#X restore 464 491 pd SET_CYC2;
#X connect 0 0 7 0;
#X connect 1 1 0 0;
#X connect 2 0 13 0;
#X connect 4 0 9 1;
#X connect 8 0 4 0;
#X connect 10 0 9 0;
#X connect 11 0 10 0;
#X connect 12 0 3 0;
#X connect 13 0 12 0;
#X connect 13 1 14 0;
#X connect 13 2 11 0;
#X connect 13 3 8 0;
#X connect 13 4 1 0;
#X connect 14 0 15 0;
#X connect 15 0 16 0;
#X connect 16 0 17 0;
#X connect 16 0 18 0;
#X restore 1118 363 pd IZYr;
#N canvas 0 130 1362 685 ABYr 0;
#X obj 337 42 inlet;
#X obj 113 474 outlet;
#X obj 680 243 bus_read;
#X obj 675 200 expr arr_br[PC] = arr_br[PC] + 1 \; arr_br[PC], f 34;
#X obj 365 433 sel 1 0;
#X obj 360 465 expr cyclesleft + 1;
#N canvas 0 52 1362 685 SET_CYC 0;
#X obj 192 41 inlet;
#X obj 475 642 r cyclesleft;
#X obj 183 96 expr cyclesleft = $f1;
#X obj 186 166 s cyclesleft;
#X connect 0 0 2 0;
#X connect 2 0 3 0;
#X restore 358 511 pd SET_CYC;
#X obj 357 392 expr if ((adr >> 8) < ((adr + arr_r[Y]) >> 8) \, 1 \, 0);
#X obj 1116 152 v adr;
#X obj 678 317 expr adr = $f1;
#X obj 403 109 t b b b b, f 23;
#X obj 404 183 expr arr_br[PC] = arr_br[PC] + 1 \; arr_br[PC], f 34;
#X obj 538 258 bus_read;
#X obj 472 330 expr adr = adr | $f1 << 8;
#X obj 123 422 expr (adr + arr_r[Y]) & 65535;
#N canvas 0 52 1354 685 SET_CYC2 0;
#X obj 192 41 inlet;
#X obj 475 642 r cyclesleft;
#X obj 183 96 expr cyclesleft = $f1;
#X obj 186 166 s s_cyclesleft;
#X connect 0 0 2 0;
#X connect 2 0 3 0;
#X restore 514 514 pd SET_CYC2;
#X connect 0 0 10 0;
#X connect 2 0 9 0;
#X connect 3 1 2 0;
#X connect 4 0 5 0;
#X connect 5 0 6 0;
#X connect 5 0 15 0;
#X connect 7 0 4 0;
#X connect 10 0 14 0;
#X connect 10 1 7 0;
#X connect 10 2 11 0;
#X connect 10 3 3 0;
#X connect 11 1 12 0;
#X connect 12 0 13 0;
#X connect 14 0 1 0;
#X restore 1264 358 pd ABYr;
#N canvas 0 130 1362 685 ABXr 0;
#X obj 337 42 inlet;
#X obj 113 474 outlet;
#X obj 680 243 bus_read;
#X obj 675 200 expr arr_br[PC] = arr_br[PC] + 1 \; arr_br[PC], f 34;
#X obj 365 433 sel 1 0;
#X obj 360 465 expr cyclesleft + 1;
#N canvas 0 52 1362 685 SET_CYC 0;
#X obj 192 41 inlet;
#X obj 475 642 r cyclesleft;
#X obj 183 96 expr cyclesleft = $f1;
#X obj 186 166 s cyclesleft;
#X connect 0 0 2 0;
#X connect 2 0 3 0;
#X restore 358 511 pd SET_CYC;
#X obj 403 109 t b b b b, f 23;
#X obj 404 183 expr arr_br[PC] = arr_br[PC] + 1 \; arr_br[PC], f 34;
#X obj 538 258 bus_read;
#X floatatom 472 263 5 0 0 0 - - - 0;
#X obj 1116 152 v adr;
#X obj 357 392 expr if ((adr >> 8) < ((adr + arr_r[X]) >> 8) \, 1 \, 0);
#X obj 123 422 expr (adr + arr_r[X]) & 65535;
#X obj 436 337 expr adr = adr | ($f1 << 8);
#X obj 678 317 expr adr = $f1;
#N canvas 0 52 1354 685 SET_CYC2 0;
#X obj 192 41 inlet;
#X obj 475 642 r cyclesleft;
#X obj 183 96 expr cyclesleft = $f1;
#X obj 186 166 s s_cyclesleft;
#X connect 0 0 2 0;
#X connect 2 0 3 0;
#X restore 514 514 pd SET_CYC2;
#X connect 0 0 7 0;
#X connect 2 0 15 0;
#X connect 3 1 2 0;
#X connect 4 0 5 0;
#X connect 5 0 6 0;
#X connect 5 0 16 0;
#X connect 7 0 13 0;
#X connect 7 1 12 0;
#X connect 7 2 8 0;
#X connect 7 3 3 0;
#X connect 8 1 9 0;
#X connect 8 1 10 0;
#X connect 9 0 14 0;
#X connect 12 0 4 0;
#X connect 13 0 1 0;
#X restore 1188 361 pd ABXr;
#X connect 0 0 25 0;
#X connect 1 0 20 0;
#X connect 2 0 16 0;
#X connect 3 0 17 0;
#X connect 4 0 21 0;
#X connect 5 0 26 0;
#X connect 6 0 22 0;
#X connect 7 0 27 0;
#X connect 8 0 18 0;
#X connect 9 0 19 0;
#X connect 10 0 23 0;
#X connect 11 0 28 0;
#X connect 12 0 33 0;
#X connect 13 0 31 0;
#X connect 14 0 29 0;
#X connect 16 0 15 0;
#X connect 17 0 15 0;
#X connect 18 0 15 0;
#X connect 19 0 15 0;
#X connect 20 0 15 0;
#X connect 21 0 15 0;
#X connect 22 0 15 0;
#X connect 23 0 15 0;
#X connect 25 0 15 0;
#X connect 26 0 15 0;
#X connect 27 0 15 0;
#X connect 28 0 15 0;
#X connect 29 0 3 0;
#X connect 29 1 2 0;
#X connect 29 2 8 0;
#X connect 29 3 9 0;
#X connect 29 4 1 0;
#X connect 29 5 4 0;
#X connect 29 6 6 0;
#X connect 29 7 10 0;
#X connect 29 8 0 0;
#X connect 29 9 5 0;
#X connect 29 11 7 0;
#X connect 29 12 11 0;
#X connect 29 13 13 0;
#X connect 29 14 12 0;
#X connect 29 15 30 0;
#X connect 30 0 32 0;
#X connect 31 0 15 0;
#X connect 32 0 15 0;
#X connect 33 0 15 0;
