#N canvas 381 123 450 300 12;
#X obj 211 472 f;
#X floatatom 98 512 5 0 0 0 - - - 0;
#X msg 213 402 symbol 0x\$1;
#X obj 227 244 list store;
#X obj 301 282 bng 19 250 50 0 empty empty empty 0 -10 0 12 #fcfcfc #000000 #000000;
#X listbox 217 324 20 0 0 0 - - - 0;
#X floatatom 249 115 5 0 255 0 - - - 0;
#X obj 332 68 inlet;
#X obj 213 66 inlet;
#X obj 196 550 outlet;
#X obj 305 551 outlet;
#X obj 423 546 outlet;
#X msg 213 168 get \$1;
#X obj 209 120 + 0;
#X connect 0 0 1 0;
#X connect 0 0 9 0;
#X connect 2 0 0 0;
#X connect 3 0 5 0;
#X connect 3 1 4 0;
#X connect 5 0 2 0;
#X connect 5 0 10 0;
#X connect 6 0 12 0;
#X connect 7 0 3 1;
#X connect 7 0 11 0;
#X connect 8 0 13 0;
#X connect 12 0 3 0;
#X connect 13 0 12 0;
