#N canvas 0 52 1362 685 12;
#X msg 927 703 \; cpu_reset 1 \;;
#X msg 1052 706 \; cpu_cycle 1;
#X obj 47 369 disasm_viewer;
#X obj 7 89 cpu;
#X obj 7 63 bng 19 250 50 0 empty empty reset 0 -10 0 12 #fcfcfc #000000 #000000;
#X obj 631 187 bng 19 250 50 0 empty loadrom ROM 0 -10 0 12 #fcfcfc #000000 #000000;
#X obj 192 63 bng 19 250 50 0 empty empty cycle 0 -10 0 12 #fcfcfc #000000 #000000;
#X text 187 343 CARTRIDGE ROM;
#X text 98 32 CPU;
#X obj 576 719 bng 19 250 50 0 empty s_NMI NMI 0 -10 0 12 #fcfcfc #000000 #000000;
#X obj 716 715 bng 19 250 50 0 empty s_IRQ IRQ 0 -10 0 12 #fcfcfc #000000 #000000;
#N canvas 0 15 1366 685 IRQ 0;
#X obj -52 144 inlet;
#X obj 835 283 v pushpc;
#X obj 582 343 expr pushpc = arr_br[PC];
#X obj 506 482 Bus_write;
#N canvas 0 104 1362 685 SET_SP 0;
#X obj 99 134 inlet;
#X obj 165 250 s s_R_SP;
#X obj 94 204 expr arr_r[SP] = $f1 & 255;
#X connect 0 0 2 0;
#X connect 2 0 1 0;
#X restore 413 483 pd SET_SP;
#X obj 424 345 expr arr_r[SP] - 1 \; 256 + arr_r[SP] \; pushpc >> 8;
#X obj 300 476 Bus_write;
#N canvas 0 104 1362 685 SET_SP 0;
#X obj 99 134 inlet;
#X obj 165 250 s s_R_SP;
#X obj 94 204 expr arr_r[SP] = $f1 & 255;
#X connect 0 0 2 0;
#X connect 2 0 1 0;
#X restore 207 477 pd SET_SP;
#X obj 218 339 expr arr_r[SP] - 1 \; 256 + arr_r[SP] \; pushpc & 255;
#X obj 49 470 Bus_write;
#X obj -22 338 expr arr_r[SP] - 1 \; 256 + arr_r[SP] \; 0;
#N canvas 35 85 585 485 getP 0;
#X obj 115 29 inlet;
#X obj 114 646 outlet;
#X obj 105 198 expr if($f2 \, 64 \, 0);
#X obj 104 140 expr if($f2 \, 128 \, 0);
#X obj 105 259 expr if($f2 \, 8 \, 0);
#X obj 103 310 expr if($f2 \, 4 \, 0);
#X obj 100 363 expr if($f2 \, 2 \, 0);
#X obj 101 416 expr if($f2 \, 1 \, 0);
#X obj 533 593 v value1;
#X obj 73 169 expr value1 = value1 | $f1;
#X obj 80 227 expr value1 = value1 | $f1;
#X obj 73 283 expr value1 = value1 | $f1;
#X obj 78 334 expr value1 = value1 | $f1;
#X obj 77 389 expr value1 = value1 | $f1;
#X obj 76 443 expr value1 = value1 | $f1;
#X obj 79 519 expr value1 = value1 | 32;
#X obj 451 19 inlet, f 6;
#X obj 96 593 expr value1 = value1 | $f1;
#X obj 91 555 expr if($f2 \, 16 \, 0);
#X floatatom 380 638 5 0 0 0 - - - 0;
#X obj 384 567 r Get_I1;
#X obj 632 624 r Get_V1;
#X obj 633 597 r Get_D;
#X obj 632 651 r Get_I1;
#X obj 637 679 r Get_Z;
#X obj 637 710 r Get_C;
#X obj 434 629 bng 19 250 50 0 empty empty empty 0 -10 0 12 #fcfcfc #000000 #000000;
#X floatatom 467 681 5 0 0 0 - - - 0;
#X obj 496 632 v value1;
#X obj 211 71 v value1;
#X floatatom 235 22 5 0 0 0 - - - 0;
#X floatatom 21 156 5 0 0 0 - - - 0;
#X obj 111 96 t b b;
#X obj 60 52 bng 19 250 50 0 empty empty empty 0 -10 0 12 #fcfcfc #000000 #000000;
#X obj 293 115 expr _N;
#X floatatom 46 611 5 0 0 0 - - - 0;
#X floatatom 24 226 5 0 0 0 - - - 0;
#X floatatom 27 281 5 0 0 0 - - - 0;
#X floatatom 28 334 5 0 0 0 - - - 0;
#X floatatom 23 397 5 0 0 0 - - - 0;
#X floatatom 19 450 5 0 0 0 - - - 0;
#X obj 301 176 expr _V;
#X obj 307 217 expr _D;
#X obj 308 279 expr _I;
#X obj 304 334 expr _Z;
#X obj 281 404 expr _C;
#X floatatom 25 190 5 0 0 0 - - - 0;
#X obj 876 300 v _N;
#X obj 889 366 v _V;
#X floatatom 906 273 5 0 1 0 - - - 0;
#X floatatom 916 335 5 0 1 0 - - - 0;
#X floatatom 934 444 5 0 1 0 - - - 0;
#X obj 895 468 v _I;
#X obj 891 419 v _D;
#X floatatom 932 391 5 0 1 0 - - - 0;
#X floatatom 930 493 5 0 1 0 - - - 0;
#X obj 903 524 v _Z;
#X floatatom 927 563 5 0 1 0 - - - 0;
#X obj 900 594 v _C;
#X obj 948 307 r Get_V1;
#X obj 973 365 r Get_D;
#X obj 970 412 r Get_I1;
#X obj 993 476 r Get_Z;
#X obj 977 540 r Get_C;
#X obj 953 252 r Get_N;
#X connect 0 0 32 0;
#X connect 2 0 10 0;
#X connect 2 0 36 0;
#X connect 3 0 31 0;
#X connect 3 0 9 0;
#X connect 4 0 11 0;
#X connect 4 0 37 0;
#X connect 5 0 12 0;
#X connect 5 0 38 0;
#X connect 6 0 13 0;
#X connect 6 0 39 0;
#X connect 7 0 14 0;
#X connect 7 0 40 0;
#X connect 8 0 27 0;
#X connect 9 0 2 0;
#X connect 9 0 46 0;
#X connect 10 0 4 0;
#X connect 11 0 5 0;
#X connect 12 0 6 0;
#X connect 13 0 7 0;
#X connect 14 0 15 0;
#X connect 15 0 18 0;
#X connect 16 0 18 1;
#X connect 17 0 1 0;
#X connect 17 0 35 0;
#X connect 18 0 17 0;
#X connect 20 0 19 0;
#X connect 26 0 8 0;
#X connect 30 0 29 0;
#X connect 32 0 3 0;
#X connect 32 1 29 0;
#X connect 32 1 34 0;
#X connect 32 1 41 0;
#X connect 32 1 42 0;
#X connect 32 1 43 0;
#X connect 32 1 44 0;
#X connect 32 1 45 0;
#X connect 32 1 30 0;
#X connect 33 0 32 0;
#X connect 34 0 3 1;
#X connect 41 0 2 1;
#X connect 42 0 4 1;
#X connect 43 0 5 1;
#X connect 44 0 6 1;
#X connect 45 0 7 1;
#X connect 49 0 47 0;
#X connect 50 0 48 0;
#X connect 51 0 52 0;
#X connect 54 0 53 0;
#X connect 55 0 56 0;
#X connect 57 0 58 0;
#X connect 59 0 50 0;
#X connect 60 0 54 0;
#X connect 61 0 51 0;
#X connect 62 0 55 0;
#X connect 63 0 57 0;
#X connect 64 0 49 0;
#X restore 110 430 pd getP;
#X obj 112 399 t b b;
#X obj -105 401 s Set_I;
#X obj -105 335 expr 1;
#X obj -440 529 expr $f1 | ($f2 << 8), f 44;
#X obj -423 421 Bus_read;
#X obj -208 421 Bus_read;
#X obj -468 205 t b b b b b b b, f 153;
#X floatatom -193 375 5 0 0 0 - - - 0;
#X obj -445 326 expr 65534;
#X obj -219 326 expr 65535;
#N canvas 0 52 1362 685 SET_PC 0;
#X obj 192 41 inlet;
#X obj 209 166 s s_br;
#X obj 183 92 expr arr_br[PC] = $f1 & 65535;
#X connect 0 0 2 0;
#X connect 2 0 1 0;
#X restore -433 581 pd SET_PC;
#X connect 0 0 18 0;
#X connect 5 0 4 0;
#X connect 5 1 3 0;
#X connect 5 2 3 1;
#X connect 8 0 7 0;
#X connect 8 1 6 0;
#X connect 8 2 6 1;
#X connect 10 1 9 0;
#X connect 10 2 12 0;
#X connect 11 0 9 1;
#X connect 12 0 11 0;
#X connect 12 1 11 1;
#X connect 14 0 13 0;
#X connect 15 0 22 0;
#X connect 16 0 15 0;
#X connect 17 0 15 1;
#X connect 18 0 20 0;
#X connect 18 1 21 0;
#X connect 18 2 14 0;
#X connect 18 3 10 0;
#X connect 18 4 8 0;
#X connect 18 5 5 0;
#X connect 18 6 2 0;
#X connect 20 0 16 0;
#X connect 21 0 17 0;
#X connect 21 0 19 0;
#X restore 761 743 pd IRQ;
#N canvas 0 101 1362 568 NMI 0;
#X obj -52 144 inlet;
#X obj 835 283 v pushpc;
#X obj 582 343 expr pushpc = arr_br[PC];
#X obj 506 482 Bus_write;
#N canvas 0 104 1362 685 SET_SP 0;
#X obj 99 134 inlet;
#X obj 165 250 s s_R_SP;
#X obj 94 204 expr arr_r[SP] = $f1 & 255;
#X connect 0 0 2 0;
#X connect 2 0 1 0;
#X restore 413 483 pd SET_SP;
#X obj 424 345 expr arr_r[SP] - 1 \; 256 + arr_r[SP] \; pushpc >> 8;
#X obj 300 476 Bus_write;
#N canvas 0 104 1362 685 SET_SP 0;
#X obj 99 134 inlet;
#X obj 165 250 s s_R_SP;
#X obj 94 204 expr arr_r[SP] = $f1 & 255;
#X connect 0 0 2 0;
#X connect 2 0 1 0;
#X restore 207 477 pd SET_SP;
#X obj 218 339 expr arr_r[SP] - 1 \; 256 + arr_r[SP] \; pushpc & 255;
#X obj 49 470 Bus_write;
#X obj -22 338 expr arr_r[SP] - 1 \; 256 + arr_r[SP] \; 0;
#N canvas 35 85 585 485 getP 0;
#X obj 115 29 inlet;
#X obj 114 646 outlet;
#X obj 105 198 expr if($f2 \, 64 \, 0);
#X obj 104 140 expr if($f2 \, 128 \, 0);
#X obj 105 259 expr if($f2 \, 8 \, 0);
#X obj 103 310 expr if($f2 \, 4 \, 0);
#X obj 100 363 expr if($f2 \, 2 \, 0);
#X obj 101 416 expr if($f2 \, 1 \, 0);
#X obj 533 593 v value1;
#X obj 73 169 expr value1 = value1 | $f1;
#X obj 80 227 expr value1 = value1 | $f1;
#X obj 73 283 expr value1 = value1 | $f1;
#X obj 78 334 expr value1 = value1 | $f1;
#X obj 77 389 expr value1 = value1 | $f1;
#X obj 76 443 expr value1 = value1 | $f1;
#X obj 79 519 expr value1 = value1 | 32;
#X obj 451 19 inlet, f 6;
#X obj 96 593 expr value1 = value1 | $f1;
#X obj 91 555 expr if($f2 \, 16 \, 0);
#X floatatom 380 638 5 0 0 0 - - - 0;
#X obj 384 567 r Get_I1;
#X obj 632 624 r Get_V1;
#X obj 633 597 r Get_D;
#X obj 632 651 r Get_I1;
#X obj 637 679 r Get_Z;
#X obj 637 710 r Get_C;
#X obj 434 629 bng 19 250 50 0 empty empty empty 0 -10 0 12 #fcfcfc #000000 #000000;
#X floatatom 467 681 5 0 0 0 - - - 0;
#X obj 496 632 v value1;
#X obj 211 71 v value1;
#X floatatom 235 22 5 0 0 0 - - - 0;
#X floatatom 21 156 5 0 0 0 - - - 0;
#X obj 111 96 t b b;
#X obj 60 52 bng 19 250 50 0 empty empty empty 0 -10 0 12 #fcfcfc #000000 #000000;
#X obj 293 115 expr _N;
#X floatatom 46 611 5 0 0 0 - - - 0;
#X floatatom 24 226 5 0 0 0 - - - 0;
#X floatatom 27 281 5 0 0 0 - - - 0;
#X floatatom 28 334 5 0 0 0 - - - 0;
#X floatatom 23 397 5 0 0 0 - - - 0;
#X floatatom 19 450 5 0 0 0 - - - 0;
#X obj 301 176 expr _V;
#X obj 307 217 expr _D;
#X obj 308 279 expr _I;
#X obj 304 334 expr _Z;
#X obj 281 404 expr _C;
#X floatatom 25 190 5 0 0 0 - - - 0;
#X obj 876 300 v _N;
#X obj 889 366 v _V;
#X floatatom 906 273 5 0 1 0 - - - 0;
#X floatatom 916 335 5 0 1 0 - - - 0;
#X floatatom 934 444 5 0 1 0 - - - 0;
#X obj 895 468 v _I;
#X obj 891 419 v _D;
#X floatatom 932 391 5 0 1 0 - - - 0;
#X floatatom 930 493 5 0 1 0 - - - 0;
#X obj 903 524 v _Z;
#X floatatom 927 563 5 0 1 0 - - - 0;
#X obj 900 594 v _C;
#X obj 948 307 r Get_V1;
#X obj 973 365 r Get_D;
#X obj 970 412 r Get_I1;
#X obj 993 476 r Get_Z;
#X obj 977 540 r Get_C;
#X obj 953 252 r Get_N;
#X connect 0 0 32 0;
#X connect 2 0 10 0;
#X connect 2 0 36 0;
#X connect 3 0 31 0;
#X connect 3 0 9 0;
#X connect 4 0 11 0;
#X connect 4 0 37 0;
#X connect 5 0 12 0;
#X connect 5 0 38 0;
#X connect 6 0 13 0;
#X connect 6 0 39 0;
#X connect 7 0 14 0;
#X connect 7 0 40 0;
#X connect 8 0 27 0;
#X connect 9 0 2 0;
#X connect 9 0 46 0;
#X connect 10 0 4 0;
#X connect 11 0 5 0;
#X connect 12 0 6 0;
#X connect 13 0 7 0;
#X connect 14 0 15 0;
#X connect 15 0 18 0;
#X connect 16 0 18 1;
#X connect 17 0 1 0;
#X connect 17 0 35 0;
#X connect 18 0 17 0;
#X connect 20 0 19 0;
#X connect 26 0 8 0;
#X connect 30 0 29 0;
#X connect 32 0 3 0;
#X connect 32 1 29 0;
#X connect 32 1 34 0;
#X connect 32 1 41 0;
#X connect 32 1 42 0;
#X connect 32 1 43 0;
#X connect 32 1 44 0;
#X connect 32 1 45 0;
#X connect 32 1 30 0;
#X connect 33 0 32 0;
#X connect 34 0 3 1;
#X connect 41 0 2 1;
#X connect 42 0 4 1;
#X connect 43 0 5 1;
#X connect 44 0 6 1;
#X connect 45 0 7 1;
#X connect 49 0 47 0;
#X connect 50 0 48 0;
#X connect 51 0 52 0;
#X connect 54 0 53 0;
#X connect 55 0 56 0;
#X connect 57 0 58 0;
#X connect 59 0 50 0;
#X connect 60 0 54 0;
#X connect 61 0 51 0;
#X connect 62 0 55 0;
#X connect 63 0 57 0;
#X connect 64 0 49 0;
#X restore 110 430 pd getP;
#X obj 112 399 t b b;
#X obj -105 401 s Set_I;
#X obj -105 335 expr 1;
#X obj -440 529 expr $f1 | ($f2 << 8), f 44;
#X obj -423 421 Bus_read;
#X obj -208 421 Bus_read;
#X obj -445 326 expr 65530;
#X obj -219 329 expr 65531;
#X obj -468 205 t b b b b b b b, f 153;
#X floatatom -193 375 5 0 0 0 - - - 0;
#N canvas 0 52 1362 685 SET_PC 0;
#X obj 192 41 inlet;
#X obj 209 166 s s_br;
#X obj 183 92 expr arr_br[PC] = $f1 & 65535;
#X connect 0 0 2 0;
#X connect 2 0 1 0;
#X restore -433 565 pd SET_PC;
#X connect 0 0 20 0;
#X connect 5 0 4 0;
#X connect 5 1 3 0;
#X connect 5 2 3 1;
#X connect 8 0 7 0;
#X connect 8 1 6 0;
#X connect 8 2 6 1;
#X connect 10 1 9 0;
#X connect 10 2 12 0;
#X connect 11 0 9 1;
#X connect 12 0 11 0;
#X connect 12 1 11 1;
#X connect 14 0 13 0;
#X connect 15 0 22 0;
#X connect 16 0 15 0;
#X connect 17 0 15 1;
#X connect 18 0 16 0;
#X connect 19 0 17 0;
#X connect 19 0 21 0;
#X connect 20 0 18 0;
#X connect 20 1 19 0;
#X connect 20 2 14 0;
#X connect 20 3 10 0;
#X connect 20 4 8 0;
#X connect 20 5 5 0;
#X connect 20 6 2 0;
#X restore 621 751 pd NMI;
#X obj 696 744 expr adr;
#X obj 554 748 expr adr;
#X obj 69 63 bng 19 250 50 0 empty empty NMI 0 -10 0 12 #fcfcfc #000000 #000000;
#X obj 130 63 bng 19 250 50 0 empty empty IRQ 0 -10 0 12 #fcfcfc #000000 #000000;
#X obj 171 479 bng 19 250 50 0 empty empty RESET 0 -10 0 12 #fcfcfc #000000 #000000;
#X obj 264 479 bng 19 250 50 0 empty empty POWER\ CYCLE 0 -10 0 12 #fcfcfc #000000 #000000;
#X text 193 438 NES BUTTONS;
#X obj 380 340 bng 19 250 50 0 empty empty POWER\ ON 0 -10 0 12 #fcfcfc #000000 #000000;
#X obj 575 527 tgl 19 0 empty NES_reset NES_reset 0 -10 0 12 #fcfcfc #000000 #000000 0 1;
#X obj 570 588 sel 0 1;
#X obj 574 618 bng 19 250 50 0 empty empty empty 0 -10 0 12 #fcfcfc #000000 #000000;
#X obj 681 619 bng 19 250 50 0 empty empty empty 0 -10 0 12 #fcfcfc #000000 #000000;
#N canvas 0 0 1362 685 ROM_TEST 0;
#X obj 668 133 t b b;
#X obj 723 190 v cnt;
#X obj 696 48 bng 19 250 50 0 empty empty empty 0 -10 0 12 #fcfcfc #000000 #000000;
#X floatatom 623 311 5 0 65535 0 - - - 0;
#N canvas 0 26 1362 685 hex2dec 0;
#X obj 211 472 f;
#X floatatom 98 512 5 0 0 0 - - - 0;
#X msg 213 402 symbol 0x\$1;
#X obj 227 244 list store;
#X obj 301 282 bng 19 250 50 0 empty empty empty 0 -10 0 12 #fcfcfc #000000 #000000;
#X listbox 217 324 20 0 0 0 - - - 0;
#X floatatom 249 115 5 0 255 0 - - - 0;
#X obj 332 68 inlet;
#X obj 213 66 inlet;
#X obj 196 550 outlet;
#X obj 305 551 outlet;
#X obj 423 546 outlet;
#X msg 213 168 get \$1;
#X obj 209 120 + 0;
#X connect 0 0 1 0;
#X connect 0 0 9 0;
#X connect 2 0 0 0;
#X connect 3 0 5 0;
#X connect 3 1 4 0;
#X connect 5 0 2 0;
#X connect 5 0 10 0;
#X connect 6 0 12 0;
#X connect 7 0 3 1;
#X connect 7 0 11 0;
#X connect 8 0 13 0;
#X connect 12 0 3 0;
#X connect 13 0 12 0;
#X restore 633 402 pd hex2dec;
#X obj 650 208 until;
#X obj 648 274 expr cnt = cnt +1;
#X obj 648 248 t b b;
#X obj 733 250 v cnt;
#X msg 658 181 28;
#X obj 634 494 array set arr_ram, f 18;
#X msg 792 136 A2 0A 8E 0 0 A2 3 8E 1 0 AC 0 0 A9 0 18 6D 1 0 88 D0 FA 8D 2 0 EA EA EA;
#X floatatom 585 435 5 0 65535 0 - - - 0;
#X msg 739 152 0;
#X obj 735 408 + 32768;
#X obj 48 569 expr arr_ram[$f1] = 0;
#N canvas 0 26 1354 685 hex2dec 0;
#X obj 211 472 f;
#X floatatom 98 512 5 0 0 0 - - - 0;
#X msg 213 402 symbol 0x\$1;
#X obj 227 244 list store;
#X obj 301 282 bng 19 250 50 0 empty empty empty 0 -10 0 12 #fcfcfc #000000 #000000;
#X listbox 217 324 20 0 0 0 - - - 0;
#X floatatom 249 115 5 0 255 0 - - - 0;
#X obj 332 68 inlet;
#X obj 213 66 inlet;
#X obj 196 550 outlet;
#X obj 305 551 outlet;
#X obj 423 546 outlet;
#X msg 213 168 get \$1;
#X obj 209 120 + 0;
#X connect 0 0 1 0;
#X connect 0 0 9 0;
#X connect 2 0 0 0;
#X connect 3 0 5 0;
#X connect 3 1 4 0;
#X connect 5 0 2 0;
#X connect 5 0 10 0;
#X connect 6 0 12 0;
#X connect 7 0 3 1;
#X connect 7 0 11 0;
#X connect 8 0 13 0;
#X connect 12 0 3 0;
#X connect 13 0 12 0;
#X restore 87 511 pd hex2dec;
#N canvas 0 26 1362 685 hex2dec 0;
#X obj 211 472 f;
#X floatatom 98 512 5 0 0 0 - - - 0;
#X msg 213 402 symbol 0x\$1;
#X obj 227 244 list store;
#X obj 301 282 bng 19 250 50 0 empty empty empty 0 -10 0 12 #fcfcfc #000000 #000000;
#X listbox 217 324 20 0 0 0 - - - 0;
#X floatatom 249 115 5 0 255 0 - - - 0;
#X obj 332 68 inlet;
#X obj 213 66 inlet;
#X obj 196 550 outlet;
#X obj 305 551 outlet;
#X obj 423 546 outlet;
#X msg 213 168 get \$1;
#X obj 209 120 + 0;
#X connect 0 0 1 0;
#X connect 0 0 9 0;
#X connect 2 0 0 0;
#X connect 3 0 5 0;
#X connect 3 1 4 0;
#X connect 5 0 2 0;
#X connect 5 0 10 0;
#X connect 6 0 12 0;
#X connect 7 0 3 1;
#X connect 7 0 11 0;
#X connect 8 0 13 0;
#X connect 12 0 3 0;
#X connect 13 0 12 0;
#X restore 295 528 pd hex2dec;
#X floatatom 251 490 5 0 0 0 - - - 0;
#X floatatom 63 466 5 0 0 0 - - - 0;
#N canvas 0 26 1354 685 hex2dec 0;
#X obj 211 472 f;
#X floatatom 98 512 5 0 0 0 - - - 0;
#X msg 213 402 symbol 0x\$1;
#X obj 227 244 list store;
#X obj 301 282 bng 19 250 50 0 empty empty empty 0 -10 0 12 #fcfcfc #000000 #000000;
#X listbox 217 324 20 0 0 0 - - - 0;
#X floatatom 249 115 5 0 255 0 - - - 0;
#X obj 332 68 inlet;
#X obj 213 66 inlet;
#X obj 196 550 outlet;
#X obj 305 551 outlet;
#X obj 423 546 outlet;
#X msg 213 168 get \$1;
#X obj 209 120 + 0;
#X connect 0 0 1 0;
#X connect 0 0 9 0;
#X connect 2 0 0 0;
#X connect 3 0 5 0;
#X connect 3 1 4 0;
#X connect 5 0 2 0;
#X connect 5 0 10 0;
#X connect 6 0 12 0;
#X connect 7 0 3 1;
#X connect 7 0 11 0;
#X connect 8 0 13 0;
#X connect 12 0 3 0;
#X connect 13 0 12 0;
#X restore 454 530 pd hex2dec;
#X obj 265 569 expr arr_ram[$f1] = $f2, f 44;
#X msg 551 480 80;
#X floatatom 433 481 5 0 0 0 - - - 0;
#X msg 374 492 FFFD;
#X msg 169 466 FFFC;
#X obj 693 11 inlet;
#X obj 646 87 t b b b;
#X obj 277 344 t b b b b b b;
#X obj 625 353 t f f;
#X msg 921 318 a9 1 8d 0 2 a9 5 8d 1 2 a9 8 8d 2 2;
#X msg 1032 385 a9 c0 aa e8 69 c4 0;
#X msg 982 471 a9 80 85 1 65 1, f 16;
#X msg 977 551 a2 8 ca 8e 0 2 e0 3 d0 f8 8e 1 2 0;
#X msg 821 630 a9 fd aa e8 e9 c4 0;
#X connect 0 0 9 0;
#X connect 0 1 13 0;
#X connect 2 0 27 0;
#X connect 3 0 29 0;
#X connect 4 0 10 0;
#X connect 4 0 12 0;
#X connect 5 0 7 0;
#X connect 7 0 6 0;
#X connect 7 1 8 0;
#X connect 8 0 3 0;
#X connect 9 0 5 0;
#X connect 11 0 4 1;
#X connect 13 0 1 0;
#X connect 14 0 10 1;
#X connect 16 0 15 0;
#X connect 17 0 21 0;
#X connect 18 0 17 0;
#X connect 19 0 16 0;
#X connect 20 0 21 1;
#X connect 22 0 20 1;
#X connect 23 0 20 0;
#X connect 24 0 17 1;
#X connect 25 0 16 1;
#X connect 26 0 2 0;
#X connect 27 0 28 0;
#X connect 27 1 0 0;
#X connect 27 2 11 0;
#X connect 28 0 19 0;
#X connect 28 1 25 0;
#X connect 28 2 18 0;
#X connect 28 3 24 0;
#X connect 28 4 23 0;
#X connect 28 5 22 0;
#X connect 29 0 4 0;
#X connect 29 1 14 0;
#X connect 30 0 4 1;
#X connect 31 0 4 1;
#X connect 32 0 4 1;
#X connect 33 0 4 1;
#X connect 34 0 4 1;
#X restore 1003 268 pd ROM_TEST;
#N canvas 0 0 1362 685 ROM 0;
#X obj 668 133 t b b;
#X obj 723 190 v cnt;
#X floatatom 623 311 5 0 65535 0 - - - 0;
#N canvas 0 26 1362 685 hex2dec 0;
#X obj 211 472 f;
#X floatatom 98 512 5 0 0 0 - - - 0;
#X msg 213 402 symbol 0x\$1;
#X obj 227 244 list store;
#X obj 301 282 bng 19 250 50 0 empty empty empty 0 -10 0 12 #fcfcfc #000000 #000000;
#X listbox 217 324 20 0 0 0 - - - 0;
#X floatatom 249 115 5 0 255 0 - - - 0;
#X obj 332 68 inlet;
#X obj 213 66 inlet;
#X obj 196 550 outlet;
#X obj 305 551 outlet;
#X obj 423 546 outlet;
#X msg 213 168 get \$1;
#X obj 209 120 + 0;
#X connect 0 0 1 0;
#X connect 0 0 9 0;
#X connect 2 0 0 0;
#X connect 3 0 5 0;
#X connect 3 1 4 0;
#X connect 5 0 2 0;
#X connect 5 0 10 0;
#X connect 6 0 12 0;
#X connect 7 0 3 1;
#X connect 7 0 11 0;
#X connect 8 0 13 0;
#X connect 12 0 3 0;
#X connect 13 0 12 0;
#X restore 633 402 pd hex2dec;
#X obj 650 208 until;
#X obj 648 274 expr cnt = cnt +1;
#X obj 648 248 t b b;
#X obj 733 250 v cnt;
#X msg 658 181 28;
#X obj 634 494 array set arr_ram, f 18;
#X floatatom 585 435 5 0 65535 0 - - - 0;
#X msg 739 152 0;
#X obj 735 408 + 32768;
#X obj 48 569 expr arr_ram[$f1] = 0;
#N canvas 0 26 1354 685 hex2dec 0;
#X obj 211 472 f;
#X floatatom 98 512 5 0 0 0 - - - 0;
#X msg 213 402 symbol 0x\$1;
#X obj 227 244 list store;
#X obj 301 282 bng 19 250 50 0 empty empty empty 0 -10 0 12 #fcfcfc #000000 #000000;
#X listbox 217 324 20 0 0 0 - - - 0;
#X floatatom 249 115 5 0 255 0 - - - 0;
#X obj 332 68 inlet;
#X obj 213 66 inlet;
#X obj 196 550 outlet;
#X obj 305 551 outlet;
#X obj 423 546 outlet;
#X msg 213 168 get \$1;
#X obj 209 120 + 0;
#X connect 0 0 1 0;
#X connect 0 0 9 0;
#X connect 2 0 0 0;
#X connect 3 0 5 0;
#X connect 3 1 4 0;
#X connect 5 0 2 0;
#X connect 5 0 10 0;
#X connect 6 0 12 0;
#X connect 7 0 3 1;
#X connect 7 0 11 0;
#X connect 8 0 13 0;
#X connect 12 0 3 0;
#X connect 13 0 12 0;
#X restore 87 511 pd hex2dec;
#N canvas 0 26 1362 685 hex2dec 0;
#X obj 211 472 f;
#X floatatom 98 512 5 0 0 0 - - - 0;
#X msg 213 402 symbol 0x\$1;
#X obj 227 244 list store;
#X obj 301 282 bng 19 250 50 0 empty empty empty 0 -10 0 12 #fcfcfc #000000 #000000;
#X listbox 217 324 20 0 0 0 - - - 0;
#X floatatom 249 115 5 0 255 0 - - - 0;
#X obj 332 68 inlet;
#X obj 213 66 inlet;
#X obj 196 550 outlet;
#X obj 305 551 outlet;
#X obj 423 546 outlet;
#X msg 213 168 get \$1;
#X obj 209 120 + 0;
#X connect 0 0 1 0;
#X connect 0 0 9 0;
#X connect 2 0 0 0;
#X connect 3 0 5 0;
#X connect 3 1 4 0;
#X connect 5 0 2 0;
#X connect 5 0 10 0;
#X connect 6 0 12 0;
#X connect 7 0 3 1;
#X connect 7 0 11 0;
#X connect 8 0 13 0;
#X connect 12 0 3 0;
#X connect 13 0 12 0;
#X restore 295 528 pd hex2dec;
#X floatatom 251 490 5 0 0 0 - - - 0;
#X floatatom 63 466 5 0 0 0 - - - 0;
#N canvas 0 26 1354 685 hex2dec 0;
#X obj 211 472 f;
#X floatatom 98 512 5 0 0 0 - - - 0;
#X msg 213 402 symbol 0x\$1;
#X obj 227 244 list store;
#X obj 301 282 bng 19 250 50 0 empty empty empty 0 -10 0 12 #fcfcfc #000000 #000000;
#X listbox 217 324 20 0 0 0 - - - 0;
#X floatatom 249 115 5 0 255 0 - - - 0;
#X obj 332 68 inlet;
#X obj 213 66 inlet;
#X obj 196 550 outlet;
#X obj 305 551 outlet;
#X obj 423 546 outlet;
#X msg 213 168 get \$1;
#X obj 209 120 + 0;
#X connect 0 0 1 0;
#X connect 0 0 9 0;
#X connect 2 0 0 0;
#X connect 3 0 5 0;
#X connect 3 1 4 0;
#X connect 5 0 2 0;
#X connect 5 0 10 0;
#X connect 6 0 12 0;
#X connect 7 0 3 1;
#X connect 7 0 11 0;
#X connect 8 0 13 0;
#X connect 12 0 3 0;
#X connect 13 0 12 0;
#X restore 454 530 pd hex2dec;
#X obj 265 569 expr arr_ram[$f1] = $f2, f 44;
#X msg 551 480 80;
#X floatatom 433 481 5 0 0 0 - - - 0;
#X msg 374 492 FFFD;
#X msg 169 466 FFFC;
#X obj 693 11 inlet;
#X obj 625 353 t f f;
#X msg 1249 97 A2 0A 8E 0 0 A2 3 8E 1 0 AC 0 0 A9 0 18 6D 1 0 88 D0 FA 8D 2 0 EA EA EA;
#X msg 1378 279 a9 1 8d 0 2 a9 5 8d 1 2 a9 8 8d 2 2;
#X msg 1489 346 a9 c0 aa e8 69 c4 0;
#X msg 1439 432 a9 80 85 1 65 1, f 16;
#X msg 1434 512 a2 8 ca 8e 0 2 e0 3 d0 f8 8e 1 2 0;
#X msg 1278 591 a9 fd aa e8 e9 c4 0;
#X obj 808 10 inlet;
#X obj 646 87 t b b;
#X obj 277 344 t b b b b b b b;
#X obj -15 571 outlet;
#X connect 0 0 8 0;
#X connect 0 1 11 0;
#X connect 2 0 25 0;
#X connect 3 0 9 0;
#X connect 3 0 10 0;
#X connect 4 0 6 0;
#X connect 6 0 5 0;
#X connect 6 1 7 0;
#X connect 7 0 2 0;
#X connect 8 0 4 0;
#X connect 11 0 1 0;
#X connect 12 0 9 1;
#X connect 14 0 13 0;
#X connect 15 0 19 0;
#X connect 16 0 15 0;
#X connect 17 0 14 0;
#X connect 18 0 19 1;
#X connect 20 0 18 1;
#X connect 21 0 18 0;
#X connect 22 0 15 1;
#X connect 23 0 14 1;
#X connect 24 0 33 0;
#X connect 25 0 3 0;
#X connect 25 1 12 0;
#X connect 32 0 3 1;
#X connect 33 0 34 0;
#X connect 33 1 0 0;
#X connect 34 0 35 0;
#X connect 34 1 17 0;
#X connect 34 2 23 0;
#X connect 34 3 16 0;
#X connect 34 4 22 0;
#X connect 34 5 21 0;
#X connect 34 6 20 0;
#X restore 627 261 pd ROM;
#X msg 655 436 \; loadrom 1 \; NES_reset 1;
#X text 352 64 RAM;
#X obj 657 22 inlet;
#X obj 636 84 t b a;
#X obj 47 550 s up_ramdisp;
#X obj 46 523 bng 19 250 50 0 empty empty empty 0 -10 0 12 #fcfcfc #000000 #000000;
#N canvas 831 361 450 300 ram_display 0;
#X restore 887 266 pd ram_display;
#N canvas 0 78 1362 685 (subpatch) 0;
#X msg 302 8 \; arr_ram const 0;
#X obj 23 25 bng 19 250 50 0 empty empty ERASE\ RAM 0 -10 0 12 #fcfcfc #000000 #000000;
#X obj 20 67 nbx 6 17 0 65535 0 1 empty empty address 0 -10 0 12 #fcfcfc #000000 #000000 0 256;
#X obj 311 70 Bus_read;
#X obj 168 67 nbx 3 17 0 255 0 0 empty empty value 0 -10 0 12 #fcfcfc #000000 #000000 0 256;
#X symbolatom 226 67 5 0 0 2 HEX - - 0;
#X symbolatom 104 67 6 0 0 2 HEX - - 0;
#X obj 372 129 makefilename $%X;
#X obj 373 99 makefilename $%X;
#X obj 610 128 bng 19 250 50 0 empty up_ramdisp up_ramdisp 0 -10 0 12 #fcfcfc #000000 #000000;
#N canvas 0 206 1362 685 RAM 0;
#N canvas -288 254 1354 559 (subpatch) 0;
#X array arr_ram 65536 float 2;
#X coords 0 1 65536 -1 200 140 1 0 0;
#X restore 28 21 graph;
#X restore 519 3 pd RAM;
#X connect 1 0 0 0;
#X connect 1 0 9 0;
#X connect 2 0 3 0;
#X connect 2 0 7 0;
#X connect 3 0 4 0;
#X connect 4 0 8 0;
#X connect 7 0 6 0;
#X connect 8 0 5 0;
#X connect 9 0 2 0;
#X coords 0 1 100 -1 279 94 1 0 0;
#X restore 222 90 graph;
#X text 557 413 temporary;
#X text 377 302 temporary;
#X msg 652 648 \; arr_ram const 0 \; cpu_reset 1;
#X msg 494 659 \; cpu_reset 1;
#X msg 295 532 \; NES_reset 1;
#X msg 161 534 \; NES_reset 0;
#X msg 766 426 \; NES_reset 1 \; loadrom 1 \; NES_reset 0;
#X msg 547 433 \; loadrom 1 \; NES_reset 0;
#X text 777 404 temporary;
#X msg 624 339 \; NES_reset 0;
#X msg 720 339 \; NES_reset 1;
#X obj 633 293 bng 19 250 50 0 empty empty empty 0 -10 0 12 #fcfcfc #000000 #000000;
#X text 899 23 TEST EVERYTHING ON BUS;
#X text 224 11 NES BUS;
#X obj 857 85 r cpu_reset;
#X obj 1017 85 r cyc;
#X connect 2 0 32 0;
#X connect 4 0 3 0;
#X connect 5 0 26 0;
#X connect 6 0 3 3;
#X connect 9 0 14 0;
#X connect 10 0 13 0;
#X connect 13 0 11 0;
#X connect 14 0 12 0;
#X connect 15 0 3 1;
#X connect 16 0 3 2;
#X connect 17 0 40 0;
#X connect 18 0 39 0;
#X connect 20 0 42 0;
#X connect 21 0 22 0;
#X connect 22 0 38 0;
#X connect 22 0 23 0;
#X connect 22 1 37 0;
#X connect 22 1 24 0;
#X connect 26 0 46 0;
#X connect 29 0 30 0;
#X connect 30 0 5 0;
#X connect 30 1 26 1;
#X connect 32 0 31 0;
#X connect 49 0 4 0;
#X coords 0 -1 1 1 512 512 2 0 0;
