#N canvas 0 125 1354 685 12;
#X obj -534 282 sel 0 1 2 3 4 5 6 7 8 9 10 11 12 13 14 15 16 17 18 19 20 21 22 23 24 25 26 27 28 29 30 31 32 33 34 35 36 37 38 39 40 41 42 43 44 45 46 47 48 49 50 51 52 53 54 55 56 57 58 59 60 61 62 63 64 65 66 67 68 69 70 71 72 73 74 75 76 77 78 79 80 81 82 83 84 85 86 87 88 89 90 91 92 93 94 95 96 97 98 99 100 101 102 103 104 105 106 107 108 109 110 111 112 113 114 115 116 117 118 119 120 121 122 123 124 125 126 127 128 129 130 131 132 133 134 135 136 137 138 139 140 141 142 143 144 145 146 147 148 149 150 151 152 153 154 155 156 157 158 159 160 161 162 163 164 165 166 167 168 169 170 171 172 173 174 175 176 177 178 179 180 181 182 183 184 185 186 187 188 189 190 191 192 193 194 195 196 197 198 199 200 201 202 203 204 205 206 207 208 209 210 211 212 213 214 215 216 217 218 219 220 221 222 223 224 225 226 227 228 229 230 231 232 233 234 235 236 237 238 239 240 241 242 243 244 245 246 247 248 249 250 251 252 253 254 255 256 257, f 1043;
#X obj 37 102 inlet;
#X obj 171 109 inlet;
#X floatatom 208 208 5 0 0 0 - - - 0;
#X obj 226 178 bng 19 250 50 0 empty empty empty 0 -10 0 12 #fcfcfc #000000 #000000;
#X obj 65 186 s eff_ address;
#X obj -5909 775 s s_BRK;
#X obj -5840 775 s s_ORA;
#X obj -5772 775 s s_KIL;
#X obj -5708 775 s s_SLO;
#X obj -5647 775 s s_NOP;
#X obj -5587 775 s s_ORA;
#X obj -5519 775 s s_ASL;
#X obj -5456 775 s s_SLO;
#X obj -5392 775 s s_PHP;
#X obj -5332 775 s s_ORA;
#X obj -5269 775 s s_ASLA;
#X obj -5199 775 s s_ANC;
#X obj -5136 775 s s_NOP;
#X obj -5078 775 s s_ORA;
#X obj -5018 775 s s_ASL;
#X obj -4961 775 s s_SLO;
#X obj -4839 778 s s_ORA;
#X obj -4771 778 s s_KIL;
#X obj -4707 778 s s_SLO;
#X obj -4646 778 s s_NOP;
#X obj -4586 778 s s_ORA;
#X obj -4518 778 s s_ASL;
#X obj -4455 778 s s_SLO;
#X obj -4331 778 s s_ORA;
#X obj -4135 778 s s_NOP;
#X obj -4077 778 s s_ORA;
#X obj -4017 778 s s_ASL;
#X obj -4198 778 s s_SLO;
#X obj -4908 778 s s_BPL;
#X obj -4391 778 s s_CLC;
#X obj -4268 778 s s_NOP;
#X obj -3960 778 s s_SLO;
#X obj -3764 779 s s_KIL;
#X obj -3896 779 s s_JSR;
#X obj -3827 779 s s_AND;
#X obj -3703 779 s s_RLA;
#X obj -3636 777 s s_BIT;
#X obj -3574 777 s s_AND;
#X obj -3511 778 s s_ROL;
#X obj -3443 778 s s_RLA;
#X obj -3384 780 s s_PLP;
#X obj -3325 781 s s_AND;
#X obj -3263 779 s s_ROLA;
#X obj -3190 778 s s_ANC;
#X obj -3124 778 s s_BIT;
#X obj -3065 779 s s_AND;
#X obj -3004 779 s s_ROL;
#X obj -2944 779 s s_RLA;
#X obj -2752 780 s s_KIL;
#X obj -2815 780 s s_AND;
#X obj -2687 779 s s_RLA;
#X obj -2561 779 s s_AND;
#X obj -2498 779 s s_ROL;
#X obj -2430 779 s s_RLA;
#X obj -2300 779 s s_AND;
#X obj -2056 779 s s_AND;
#X obj -1995 779 s s_ROL;
#X obj -1930 779 s s_RLA;
#X obj -2884 780 s s_BMI;
#X obj -2619 779 s s_NOP;
#X obj -2368 779 s s_SEC;
#X obj -2239 779 s s_NOP;
#X obj -2176 780 s s_RLA;
#X obj -2115 779 s s_NOP;
#X obj -1744 780 s s_KIL;
#X obj -1611 779 s s_NOP;
#X obj -1876 780 s s_RTI;
#X obj -1807 780 s s_EOR;
#X obj -1679 779 s s_SRE;
#X obj -1553 779 s s_EOR;
#X obj -1490 779 s s_LSR;
#X obj -1422 779 s s_SRE;
#X obj -1360 779 s s_PHA;
#X obj -1292 779 s s_EOR;
#X obj -1231 779 s s_LSRA;
#X obj -1166 780 s s_ALR;
#X obj -1105 779 s s_JMP;
#X obj -1046 779 s s_EOR;
#X obj -985 779 s s_LSR;
#X obj -920 779 s s_SRE;
#X obj -727 779 s s_KIL;
#X obj -594 778 s s_NOP;
#X obj -790 779 s s_EOR;
#X obj -662 778 s s_SRE;
#X obj -536 778 s s_EOR;
#X obj -473 778 s s_LSR;
#X obj -405 778 s s_SRE;
#X obj -275 778 s s_EOR;
#X obj -29 778 s s_EOR;
#X obj 32 778 s s_LSR;
#X obj 86 777 s s_SRE;
#X obj -859 779 s s_BVC;
#X obj -343 778 s s_CLI;
#X obj -214 778 s s_NOP;
#X obj -149 779 s s_SRE;
#X obj -88 778 s s_NOP;
#X obj 263 780 s s_KIL;
#X obj 378 777 s s_NOP;
#X obj 144 778 s s_RTS;
#X obj 204 780 s s_ADC;
#X obj 319 777 s s_RRA;
#X obj 435 775 s s_ADC;
#X obj 492 777 s s_ROR;
#X obj 553 778 s s_RRA;
#X obj 614 775 s s_PLA;
#X obj 682 775 s s_ADC;
#X obj 743 775 s s_RORA;
#X obj 806 776 s s_ARR;
#X obj 867 775 s s_JMP;
#X obj 926 775 s s_ADC;
#X obj 987 775 s s_ROR;
#X obj 1045 775 s s_RRA;
#X obj 1226 776 s s_KIL;
#X obj 1343 777 s s_NOP;
#X obj 1163 776 s s_ADC;
#X obj 1287 776 s s_RRA;
#X obj 1403 777 s s_ADC;
#X obj 1464 778 s s_ROR;
#X obj 1523 778 s s_RRA;
#X obj 1640 775 s s_ADC;
#X obj 1878 775 s s_ADC;
#X obj 1934 774 s s_ROR;
#X obj 1990 775 s s_RRA;
#X obj 1107 776 s s_BVS;
#X obj 1582 776 s s_SEI;
#X obj 1700 776 s s_NOP;
#X obj 1763 777 s s_RRA;
#X obj 1821 776 s s_NOP;
#X obj 2046 776 s s_NOP;
#X obj 2104 774 s s_STA;
#X obj 2163 772 s s_NOP;
#X obj 2221 773 s s_SAX;
#X obj 2279 773 s s_STY;
#X obj 2339 773 s s_STA;
#X obj 2396 773 s s_STX;
#X obj 2454 775 s s_SAX;
#X obj 2512 776 s s_DEY;
#X obj 2570 777 s s_NOP;
#X obj 2629 777 s s_TXA;
#X obj 2691 777 s s_UNI;
#X obj 2750 774 s s_STY;
#X obj 2807 773 s s_STA;
#X obj 2863 773 s s_STX;
#X obj 2928 773 s s_SAX;
#X obj 3058 773 s s_STA;
#X obj 3254 772 s s_STY;
#X obj 3312 772 s s_STA;
#X obj 3375 772 s s_STX;
#X obj 3443 772 s s_SAX;
#X obj 3697 773 s s_UNI;
#X obj 3817 772 s s_STA;
#X obj 2989 773 s s_BCC;
#X obj 3121 773 s s_KIL;
#X obj 3186 772 s s_UNI;
#X obj 3505 772 s s_TYA;
#X obj 3573 772 s s_STA;
#X obj 3634 772 s s_TXS;
#X obj 3758 772 s s_UNI;
#X obj 3878 772 s s_UNI;
#X obj 3943 772 s s_UNI;
#X obj 4707 769 s s_UNI;
#X obj 3999 769 s s_LDY;
#X obj 4068 769 s s_LDA;
#X obj 4131 769 s s_LDX;
#X obj 4196 768 s s_LAX;
#X obj 4264 768 s s_LDY;
#X obj 4322 768 s s_LDA;
#X obj 4385 768 s s_LDX;
#X obj 4453 768 s s_LAX;
#X obj 4515 768 s s_TAY;
#X obj 4583 768 s s_LDA;
#X obj 4644 768 s s_TAX;
#X obj 4768 768 s s_LDY;
#X obj 4827 768 s s_LDA;
#X obj 4888 768 s s_LDX;
#X obj 4953 768 s s_LAX;
#X obj 5720 768 s s_UNI;
#X obj 5081 768 s s_LDA;
#X obj 5211 766 s s_LAX;
#X obj 5277 767 s s_LDY;
#X obj 5335 767 s s_LDA;
#X obj 5398 767 s s_LDX;
#X obj 5466 767 s s_LAX;
#X obj 5596 767 s s_LDA;
#X obj 5781 767 s s_LDY;
#X obj 5840 767 s s_LDA;
#X obj 5901 767 s s_LDX;
#X obj 5966 767 s s_LAX;
#X obj 6031 769 s s_CPY;
#X obj 6100 769 s s_CMP;
#X obj 6163 769 s s_NOP;
#X obj 6228 768 s s_DCP;
#X obj 6286 767 s s_CPY;
#X obj 6344 767 s s_CMP;
#X obj 6407 767 s s_DEC;
#X obj 6475 767 s s_DCP;
#X obj 6532 768 s s_INY;
#X obj 6600 768 s s_CMP;
#X obj 6661 768 s s_DEX;
#X obj 6724 769 s s_AXS;
#X obj 6785 768 s s_CPY;
#X obj 6846 769 s s_CMP;
#X obj 6905 768 s s_DEC;
#X obj 6970 768 s s_DCP;
#X obj 7103 769 s s_CMP;
#X obj 7231 768 s s_DCP;
#X obj 7357 768 s s_CMP;
#X obj 7420 768 s s_DEC;
#X obj 7488 768 s s_DCP;
#X obj 7618 768 s s_CMP;
#X obj 7864 769 s s_CMP;
#X obj 7923 768 s s_DEC;
#X obj 7988 768 s s_DCP;
#X obj 7034 769 s s_BNE;
#X obj 7166 769 s s_KIL;
#X obj 7297 768 s s_NOP;
#X obj 7550 768 s s_CLD;
#X obj 7679 768 s s_NOP;
#X obj 7742 769 s s_DCP;
#X obj 7803 768 s s_NOP;
#X obj 8710 766 s s_NOP;
#X obj 8067 767 s s_CPX;
#X obj 8136 767 s s_SBC;
#X obj 8197 767 s s_NOP;
#X obj 8262 766 s s_ISC;
#X obj 8330 766 s s_CPX;
#X obj 8388 766 s s_SBC;
#X obj 8451 766 s s_INC;
#X obj 8519 766 s s_ISC;
#X obj 8581 766 s s_INX;
#X obj 8649 766 s s_SBC;
#X obj 8773 767 s s_SBC;
#X obj 8834 766 s s_CPX;
#X obj 8895 767 s s_SBC;
#X obj 8954 766 s s_INC;
#X obj 9019 766 s s_ISC;
#X obj 9721 765 s s_NOP;
#X obj 9145 766 s s_SBC;
#X obj 9273 765 s s_ISC;
#X obj 9399 765 s s_SBC;
#X obj 9462 765 s s_INC;
#X obj 9530 765 s s_ISC;
#X obj 9660 765 s s_SBC;
#X obj 9911 761 s s_SBC;
#X obj 9970 760 s s_INC;
#X obj 10035 760 s s_ISC;
#X obj 9088 766 s s_BEQ;
#X obj 9208 766 s s_KIL;
#X obj 9341 765 s s_NOP;
#X obj 9592 765 s s_SED;
#X obj 9785 764 s s_ISC;
#X obj 9846 763 s s_NOP;
#X obj 10099 761 s s_NMI;
#X obj 10162 761 s s_IRQ;
#X obj 5012 768 s s_BCS;
#X obj 5144 768 s s_KIL;
#X obj 5528 767 s s_CLV;
#X obj 5657 767 s s_TSX;
#X floatatom 74 128 5 0 0 0 - - - 0;
#X obj -319 170 v adr;
#X obj -323 125 r eff_ address;
#X floatatom -228 171 5 0 0 0 - - - 0;
#X floatatom 138 157 5 0 0 0 - - - 0;
#X obj 233 141 s uni_instruct;
#X connect 0 0 6 0;
#X connect 0 1 7 0;
#X connect 0 2 8 0;
#X connect 0 3 9 0;
#X connect 0 4 10 0;
#X connect 0 5 11 0;
#X connect 0 6 12 0;
#X connect 0 7 13 0;
#X connect 0 8 14 0;
#X connect 0 9 15 0;
#X connect 0 10 16 0;
#X connect 0 11 17 0;
#X connect 0 12 18 0;
#X connect 0 13 19 0;
#X connect 0 14 20 0;
#X connect 0 15 21 0;
#X connect 0 16 34 0;
#X connect 0 17 22 0;
#X connect 0 18 23 0;
#X connect 0 19 24 0;
#X connect 0 20 25 0;
#X connect 0 21 26 0;
#X connect 0 22 27 0;
#X connect 0 23 28 0;
#X connect 0 24 35 0;
#X connect 0 25 29 0;
#X connect 0 26 36 0;
#X connect 0 27 33 0;
#X connect 0 28 30 0;
#X connect 0 29 31 0;
#X connect 0 30 32 0;
#X connect 0 31 37 0;
#X connect 0 32 39 0;
#X connect 0 33 40 0;
#X connect 0 34 38 0;
#X connect 0 35 41 0;
#X connect 0 36 42 0;
#X connect 0 37 43 0;
#X connect 0 38 44 0;
#X connect 0 39 45 0;
#X connect 0 40 46 0;
#X connect 0 41 47 0;
#X connect 0 42 48 0;
#X connect 0 43 49 0;
#X connect 0 44 50 0;
#X connect 0 45 51 0;
#X connect 0 46 52 0;
#X connect 0 47 53 0;
#X connect 0 48 64 0;
#X connect 0 49 55 0;
#X connect 0 50 54 0;
#X connect 0 51 56 0;
#X connect 0 52 65 0;
#X connect 0 53 57 0;
#X connect 0 54 58 0;
#X connect 0 55 59 0;
#X connect 0 56 66 0;
#X connect 0 57 60 0;
#X connect 0 58 67 0;
#X connect 0 59 68 0;
#X connect 0 60 69 0;
#X connect 0 61 61 0;
#X connect 0 62 62 0;
#X connect 0 63 63 0;
#X connect 0 64 72 0;
#X connect 0 65 73 0;
#X connect 0 66 70 0;
#X connect 0 67 74 0;
#X connect 0 68 71 0;
#X connect 0 69 75 0;
#X connect 0 70 76 0;
#X connect 0 71 77 0;
#X connect 0 72 78 0;
#X connect 0 73 79 0;
#X connect 0 74 80 0;
#X connect 0 75 81 0;
#X connect 0 76 82 0;
#X connect 0 77 83 0;
#X connect 0 78 84 0;
#X connect 0 79 85 0;
#X connect 0 80 97 0;
#X connect 0 81 88 0;
#X connect 0 82 86 0;
#X connect 0 83 89 0;
#X connect 0 84 87 0;
#X connect 0 85 90 0;
#X connect 0 86 91 0;
#X connect 0 87 92 0;
#X connect 0 88 98 0;
#X connect 0 89 93 0;
#X connect 0 90 99 0;
#X connect 0 91 100 0;
#X connect 0 92 101 0;
#X connect 0 93 94 0;
#X connect 0 94 95 0;
#X connect 0 95 96 0;
#X connect 0 96 104 0;
#X connect 0 97 105 0;
#X connect 0 98 102 0;
#X connect 0 99 106 0;
#X connect 0 100 103 0;
#X connect 0 101 107 0;
#X connect 0 102 108 0;
#X connect 0 103 109 0;
#X connect 0 104 110 0;
#X connect 0 105 111 0;
#X connect 0 106 112 0;
#X connect 0 107 113 0;
#X connect 0 108 114 0;
#X connect 0 109 115 0;
#X connect 0 110 116 0;
#X connect 0 111 117 0;
#X connect 0 112 129 0;
#X connect 0 113 120 0;
#X connect 0 114 118 0;
#X connect 0 115 121 0;
#X connect 0 116 119 0;
#X connect 0 117 122 0;
#X connect 0 118 123 0;
#X connect 0 119 124 0;
#X connect 0 120 130 0;
#X connect 0 121 125 0;
#X connect 0 122 131 0;
#X connect 0 123 132 0;
#X connect 0 124 133 0;
#X connect 0 125 126 0;
#X connect 0 126 127 0;
#X connect 0 127 128 0;
#X connect 0 128 134 0;
#X connect 0 129 135 0;
#X connect 0 130 136 0;
#X connect 0 131 137 0;
#X connect 0 132 138 0;
#X connect 0 133 139 0;
#X connect 0 134 140 0;
#X connect 0 135 141 0;
#X connect 0 136 142 0;
#X connect 0 137 143 0;
#X connect 0 138 144 0;
#X connect 0 139 145 0;
#X connect 0 140 146 0;
#X connect 0 141 147 0;
#X connect 0 142 148 0;
#X connect 0 143 149 0;
#X connect 0 144 157 0;
#X connect 0 145 150 0;
#X connect 0 146 158 0;
#X connect 0 147 159 0;
#X connect 0 148 151 0;
#X connect 0 149 152 0;
#X connect 0 150 153 0;
#X connect 0 151 154 0;
#X connect 0 152 160 0;
#X connect 0 153 161 0;
#X connect 0 154 162 0;
#X connect 0 155 155 0;
#X connect 0 156 163 0;
#X connect 0 157 156 0;
#X connect 0 158 164 0;
#X connect 0 159 165 0;
#X connect 0 160 167 0;
#X connect 0 161 168 0;
#X connect 0 162 169 0;
#X connect 0 163 170 0;
#X connect 0 164 171 0;
#X connect 0 165 172 0;
#X connect 0 166 173 0;
#X connect 0 167 174 0;
#X connect 0 168 175 0;
#X connect 0 169 176 0;
#X connect 0 170 177 0;
#X connect 0 171 166 0;
#X connect 0 172 178 0;
#X connect 0 173 179 0;
#X connect 0 174 180 0;
#X connect 0 175 181 0;
#X connect 0 176 260 0;
#X connect 0 177 183 0;
#X connect 0 178 261 0;
#X connect 0 179 184 0;
#X connect 0 180 185 0;
#X connect 0 181 186 0;
#X connect 0 182 187 0;
#X connect 0 183 188 0;
#X connect 0 184 262 0;
#X connect 0 185 189 0;
#X connect 0 186 263 0;
#X connect 0 187 182 0;
#X connect 0 188 190 0;
#X connect 0 189 191 0;
#X connect 0 190 192 0;
#X connect 0 191 193 0;
#X connect 0 192 194 0;
#X connect 0 193 195 0;
#X connect 0 194 196 0;
#X connect 0 195 197 0;
#X connect 0 196 198 0;
#X connect 0 197 199 0;
#X connect 0 198 200 0;
#X connect 0 199 201 0;
#X connect 0 200 202 0;
#X connect 0 201 203 0;
#X connect 0 202 204 0;
#X connect 0 203 205 0;
#X connect 0 204 206 0;
#X connect 0 205 207 0;
#X connect 0 206 208 0;
#X connect 0 207 209 0;
#X connect 0 208 219 0;
#X connect 0 209 210 0;
#X connect 0 210 220 0;
#X connect 0 211 211 0;
#X connect 0 212 221 0;
#X connect 0 213 212 0;
#X connect 0 214 213 0;
#X connect 0 215 214 0;
#X connect 0 216 222 0;
#X connect 0 217 215 0;
#X connect 0 218 223 0;
#X connect 0 219 224 0;
#X connect 0 220 225 0;
#X connect 0 221 216 0;
#X connect 0 222 217 0;
#X connect 0 223 218 0;
#X connect 0 224 227 0;
#X connect 0 225 228 0;
#X connect 0 226 229 0;
#X connect 0 227 230 0;
#X connect 0 228 231 0;
#X connect 0 229 232 0;
#X connect 0 230 233 0;
#X connect 0 231 234 0;
#X connect 0 232 235 0;
#X connect 0 233 236 0;
#X connect 0 234 226 0;
#X connect 0 235 237 0;
#X connect 0 236 238 0;
#X connect 0 237 239 0;
#X connect 0 238 240 0;
#X connect 0 239 241 0;
#X connect 0 240 252 0;
#X connect 0 241 243 0;
#X connect 0 242 253 0;
#X connect 0 243 244 0;
#X connect 0 244 254 0;
#X connect 0 245 245 0;
#X connect 0 246 246 0;
#X connect 0 247 247 0;
#X connect 0 248 255 0;
#X connect 0 249 248 0;
#X connect 0 250 242 0;
#X connect 0 251 256 0;
#X connect 0 252 257 0;
#X connect 0 253 249 0;
#X connect 0 254 250 0;
#X connect 0 255 251 0;
#X connect 0 256 258 0;
#X connect 0 257 259 0;
#X connect 1 0 5 0;
#X connect 1 0 264 0;
#X connect 2 0 0 0;
#X connect 2 0 268 0;
#X connect 2 0 269 0;
#X connect 3 0 0 0;
#X connect 4 0 3 0;
#X connect 266 0 265 0;
#X connect 266 0 267 0;
