#N canvas 26 26 450 300 12;
#X obj 121 36 inlet;
#X obj 121 68 expr $f1 & 255;
#X obj 178 162 expr $f1 == 0;
#X obj 215 197 s Set_Z;
#X obj 75 199 expr $f1 > 127;
#X obj 86 246 s Set_N;
#X obj 112 133 t f f;
#X connect 0 0 1 0;
#X connect 1 0 6 0;
#X connect 2 0 3 0;
#X connect 4 0 5 0;
#X connect 6 0 4 0;
#X connect 6 1 2 0;
